<svg height="496pt" viewBox="0 0 496 496" width="496pt" xmlns="http://www.w3.org/2000/svg" xmlns:xlink="http://www.w3.org/1999/xlink"><linearGradient id="a" gradientTransform="matrix(8 0 0 -8 -8 504)" gradientUnits="userSpaceOnUse" x1="32" x2="32" y1="1" y2="63"><stop offset="0" stop-color="#9f2fff"/><stop offset="1" stop-color="#0bb1d3"/></linearGradient><path d="m389.65625 258.34375 18.34375 18.34375 18.34375-18.34375 11.3125 11.3125-29.65625 29.65625-29.65625-29.65625zm-301.65625 181.65625c0-13.230469 10.769531-24 24-24s24 10.769531 24 24-10.769531 24-24 24-24-10.769531-24-24zm16 0c0 4.40625 3.585938 8 8 8s8-3.59375 8-8-3.585938-8-8-8-8 3.59375-8 8zm208 0c0 13.230469-10.769531 24-24 24s-24-10.769531-24-24 10.769531-24 24-24 24 10.769531 24 24zm-16 0c0-4.40625-3.585938-8-8-8s-8 3.59375-8 8 3.585938 8 8 8 8-3.59375 8-8zm64 0c0-13.230469 10.769531-24 24-24s24 10.769531 24 24-10.769531 24-24 24-24-10.769531-24-24zm16 0c0 4.40625 3.585938 8 8 8s8-3.59375 8-8-3.585938-8-8-8-8 3.59375-8 8zm120 0c0 30.878906-25.128906 56-56 56h-384c-30.871094 0-56-25.121094-56-56s25.128906-56 56-56h120v-32h-32l36-48h136l36 48h-32v32h120c30.871094 0 56 25.121094 56 56zm-112-40c-22.054688 0-40 17.945312-40 40s17.945312 40 40 40 40-17.945312 40-40-17.945312-40-40-40zm-39.113281 0h-17.765625c3.429687 3.359375 6.398437 7.167969 8.886718 11.304688 2.472657-4.136719 5.449219-7.945313 8.878907-11.304688zm-16.886719 40c0-22.054688-17.945312-40-40-40s-40 17.945312-40 40 17.945312 40 40 40 40-17.945312 40-40zm-24-88h-36l-12-16v48h48zm-40-32 12 16h44l-12-16zm-88 16h44l12-16h-44zm16 48h48v-48l-12 16h-36zm-80 16c-22.054688 0-40 17.945312-40 40s17.945312 40 40 40 40-17.945312 40-40-17.945312-40-40-40zm-39.113281 80c-10.398438-10.175781-16.886719-24.335938-16.886719-40s6.480469-29.824219 16.886719-40h-16.886719c-22.054688 0-40 17.945312-40 40s17.945312 40 40 40zm176 0c-10.398438-10.175781-16.886719-24.335938-16.886719-40s6.480469-29.824219 16.886719-40h-97.765625c10.398437 10.175781 16.886718 24.335938 16.886718 40s-6.480468 29.824219-16.886718 40zm96 0c-3.429688-3.359375-6.398438-7.167969-8.886719-11.304688-2.480469 4.136719-5.457031 7.953126-8.886719 11.304688zm135.113281-40c0-22.054688-17.945312-40-40-40h-16.886719c10.398438 10.175781 16.886719 24.335938 16.886719 40s-6.480469 29.824219-16.886719 40h16.886719c22.054688 0 40-17.945312 40-40zm-288-336c0-30.878906 25.128906-56 56-56s56 25.121094 56 56-25.128906 56-56 56-56-25.121094-56-56zm16 0c0 22.054688 17.945312 40 40 40s40-17.945312 40-40-17.945312-40-40-40-40 17.945312-40 40zm-43.960938-26.121094c1.585938-5.101562 3.632813-10.046875 6.128907-14.78125l-11.808594-16.539062 32.199219-32.207032 16.539062 11.816407c4.734375-2.496094 9.671875-4.535157 14.78125-6.128907l3.335938-20.039062h45.5625l3.335937 20.039062c5.109375 1.585938 10.046875 3.632813 14.78125 6.128907l16.539063-11.816407 32.199218 32.207032-11.808593 16.539062c2.496093 4.734375 4.535156 9.679688 6.128906 14.78125l20.046875 3.34375v45.554688l-20.039062 3.335937c-1.585938 5.101563-3.632813 10.046875-6.128907 14.78125l11.808594 16.539063-32.199219 32.207031-16.539062-11.816406c-4.734375 2.496093-9.671875 4.535156-14.78125 6.128906l-3.335938 20.046875h-14.785156v32h32v48h-16v-32h-48v32h-16v-48h32v-32h-14.785156l-3.335938-20.039062c-5.109375-1.585938-10.046875-3.632813-14.78125-6.128907l-16.539062 11.816407-32.199219-32.207032 11.808594-16.539062c-2.496094-4.734375-4.535157-9.679688-6.128907-14.78125l-20.039062-3.34375v-45.554688zm-4.039062 16.898438v18.445312l16.894531 2.816406 1.257813 5.128907c1.726562 7.078125 4.527344 13.832031 8.320312 20.078125l2.742188 4.507812-9.96875 13.949219 13.050781 13.039063 13.941406-9.964844 4.515625 2.742187c6.230469 3.785157 12.988282 6.585938 20.085938 8.328125l5.121094 1.257813 2.824218 16.894531h18.4375l2.824219-16.894531 5.121094-1.257813c7.097656-1.734375 13.847656-4.535156 20.089843-8.328125l4.511719-2.742187 13.941407 9.964844 13.050781-13.039063-9.96875-13.949219 2.742187-4.507812c3.792969-6.246094 6.59375-13 8.320313-20.078125l1.257812-5.128907 16.886719-2.816406v-18.445312l-16.894531-2.816406-1.257813-5.128907c-1.726562-7.078125-4.527344-13.832031-8.320312-20.078125l-2.742188-4.507812 9.96875-13.949219-13.050781-13.039063-13.941406 9.964844-4.515625-2.742187c-6.230469-3.785157-12.988282-6.585938-20.085938-8.328125l-5.121094-1.257813-2.824218-16.894531h-18.4375l-2.824219 16.894531-5.121094 1.257813c-7.097656 1.734375-13.847656 4.535156-20.089843 8.328125l-4.511719 2.742187-13.941407-9.964844-13.050781 13.039063 9.96875 13.949219-2.742187 4.507812c-3.792969 6.246094-6.59375 13-8.320313 20.078125l-1.257812 5.128907zm240 161.222656h16v-16h-16zm0-48h16v-16h-16zm0-48h16v-16h-16zm16-64h-16v16h16zm-298.34375 26.34375-29.65625-29.65625-29.65625 29.65625 11.3125 11.3125 18.34375-18.34375 18.34375 18.34375zm-21.65625 13.65625h-16v16h16zm0 48h-16v16h16zm0 48h-16v16h16zm-16 64h16v-16h-16zm0 0" fill="url(#a)"/></svg>