<svg height="496pt" viewBox="-88 0 496 496" width="496pt" xmlns="http://www.w3.org/2000/svg" xmlns:xlink="http://www.w3.org/1999/xlink"><linearGradient id="a" gradientTransform="matrix(8 0 0 -8 -96.009222 504)" gradientUnits="userSpaceOnUse" x1="32" x2="32" y1="1" y2="63"><stop offset="0" stop-color="#9f2fff"/><stop offset="1" stop-color="#0bb1d3"/></linearGradient><path d="m213.597656 192h48.378906c31.078126 0 57.085938-24.351562 57.980469-54.289062.464844-15.296876-5.140625-29.75-15.78125-40.710938-6.871093-7.089844-15.28125-12.078125-24.480469-14.753906-2.921874-32.597656-30.359374-58.246094-63.710937-58.246094-3.21875 0-6.410156.265625-9.5625.734375-10.070313-14.910156-27.128906-24.734375-46.4375-24.734375-18.632813 0-36 9.457031-46.363281 24.792969-3.167969-.480469-6.375-.792969-9.636719-.792969-33.378906 0-60.832031 25.6875-63.714844 58.328125-19.414062 5.574219-34.894531 21.816406-39.039062 41.710937-3.519531 16.890626.59375 34.121094 11.289062 47.273438 10.6875 13.144531 26.527344 20.6875 43.464844 20.6875h50.429687c1.753907 1.953125 3.585938 3.847656 5.570313 5.625v24.839844c-24.714844 16.175781-40 43.839844-40 73.542968v48c0 17.648438-14.355469 32-32 32h-12.945313l7.039063 14.082032c6.550781 13.101562 16.488281 23.964844 28.570313 31.628906-14.234376 5.304688-25.882813 16.152344-31.960938 30.351562l-18.839844 43.929688h296.261719l-18.832031-43.9375c-6.078125-14.199219-17.726563-25.046875-31.957032-30.351562 12.085938-7.671876 22.015626-18.527344 28.566407-31.632813l7.039062-14.078125h-12.941406c-17.648437 0-32-14.351562-32-32v-48c0-29.703125-15.289063-57.359375-40-73.542969v-24.839843c1.992187-1.777344 3.855469-3.65625 5.613281-5.617188zm-85.613281 24h64v8c0 4.40625-3.59375 8-8 8h-48c-4.410156 0-8-3.59375-8-8zm24-72c0-4.40625 3.589844-8 8-8 4.40625 0 8 3.59375 8 8s-3.59375 8-8 8c-4.410156 0-8-3.59375-8-8zm42.992187 43.679688-2.992187 2.398437v9.921875h-24v-33.472656c9.285156-3.3125 16-12.113282 16-22.527344 0-13.230469-10.769531-24-24-24-13.234375 0-24 10.769531-24 24 0 10.414062 6.710937 19.214844 16 22.527344v33.472656h-24v-9.921875l-2.992187-2.398437c-15.273438-12.253907-22.96875-31.238282-20.570313-50.777344 3.097656-25.292969 23.738281-45.703125 49.082031-48.535156 2.199219-.246094 4.382813-.367188 6.550782-.367188 13.816406 0 26.847656 4.945312 37.25 14.246094 11.871093 10.617187 18.679687 25.832031 18.679687 41.753906 0 17.039062-7.65625 32.96875-21.007813 43.679688zm-138.992187-11.679688c-12.097656 0-23.417969-5.390625-31.058594-14.785156-7.640625-9.398438-10.566406-21.757813-8.03125-33.910156 3.136719-15.046876 15.34375-27.257813 30.390625-30.394532 12.882813-2.6875 25.777344.691406 35.363282 9.28125l10.671874-11.917968c-10.242187-9.160157-23.136718-14.066407-36.625-14.226563 3.816407-22.695313 23.535157-40.046875 47.289063-40.046875 12.636719 0 24.566406 4.863281 33.589844 13.710938l11.191406-11.429688c-5.511719-5.402344-11.855469-9.625-18.710937-12.6875 7.527343-8.488281 18.382812-13.59375 29.929687-13.59375 22.054687 0 40 17.945312 40 40h16c0-5.503906-.832031-10.808594-2.3125-15.832031.765625-.039063 1.535156-.167969 2.3125-.167969 23.75 0 43.476563 17.359375 47.285156 40.054688-10.816406.136718-21.261719 3.304687-30.246093 9.28125l8.847656 13.328124c6.558594-4.359374 14.199218-6.664062 22.113281-6.664062 10.910156 0 21.101563 4.3125 28.703125 12.144531 7.597656 7.832031 11.597656 18.160157 11.269531 29.09375-.636719 21.371094-19.476562 38.761719-41.992187 38.761719h-37.574219c4.886719-9.816406 7.59375-20.695312 7.59375-32 0-20.464844-8.753906-40.023438-24.019531-53.679688-15.246094-13.648437-35.789063-20.183593-56.238282-17.855468-32.625 3.648437-59.191406 29.925781-63.183593 62.496094-1.769531 14.421874.816406 28.589843 7.007812 41.039062zm168 165.777344v-27.554688c4.757813 2.777344 8 7.882813 8 13.777344s-3.242187 11-8 13.777344zm-40 71.871094c-2.210937 3.023437-9.058594 10.351562-24 10.351562-14.945313 0-21.792969-7.328125-24-10.351562v-10.359376c7.414063 3.015626 15.511719 4.710938 24 4.710938s16.582031-1.695312 24-4.710938zm-24-21.648438c-26.472656 0-48-21.527344-48-48v-32h96v32c0 26.472656-21.53125 48-48 48zm-64-50.222656c-4.761719-2.777344-8-7.882813-8-13.777344s3.238281-11 8-13.777344zm-43.273437 48.511718c16.878906-4.648437 29.917968-18.351562 33.894531-35.488281 3.394531 2.207031 7.21875 3.800781 11.328125 4.589844 3.425781 13.800781 11.289062 25.847656 22.050781 34.496094v15.5625l-31.640625 6.328125c-14.609375-4.074219-27.199219-13.089844-35.632812-25.488282zm221.863281 68.070313 9.273437 21.640625h-247.738281l9.273437-21.640625c5.191407-12.113281 16-20.878906 28.921876-23.472656l50.175781-10.03125c5.109375 6.066406 16.015625 15.144531 35.503906 15.144531s30.390625-9.078125 35.496094-15.136719l50.175781 10.03125c12.917969 2.585938 23.726562 11.351563 28.917969 23.464844zm-7.320313-68.070313c-8.429687 12.398438-21.03125 21.414063-35.632812 25.480469l-31.636719-6.328125v-15.5625c10.757813-8.648437 18.621094-20.695312 22.046875-34.496094 4.113281-.789062 7.933594-2.382812 11.328125-4.589843 3.984375 17.144531 17.023437 30.847656 33.894531 35.496093zm-35.269531-94.289062v4.449219c-4.730469-2.753907-10.144531-4.449219-16-4.449219h-112c-5.859375 0-11.273437 1.695312-16 4.449219v-4.449219c0-22.761719 10.917969-44.113281 28.910156-57.609375 4.382813 5.800781 11.273438 9.609375 19.089844 9.609375h48c7.8125 0 14.703125-3.808594 19.085937-9.609375 17.992188 13.496094 28.914063 34.847656 28.914063 57.609375zm24-136v-16c8.824219 0 16-7.175781 16-16h16c0 17.648438-14.355469 32-32 32zm-192-16v16c-17.648437 0-32-14.351562-32-32h16c0 8.824219 7.175781 16 16 16zm176-64h-16v-16h16zm-136-8h-16v-16h16zm0 0" fill="url(#a)"/></svg>