<svg height="496pt" viewBox="0 0 496 496" width="496pt" xmlns="http://www.w3.org/2000/svg" xmlns:xlink="http://www.w3.org/1999/xlink"><linearGradient id="a" gradientUnits="userSpaceOnUse" x1="248" x2="248" y1="496" y2="0"><stop offset="0" stop-color="#9f2fff"/><stop offset="1" stop-color="#0bb1d3"/></linearGradient><path d="m448 304h16v16h-16zm-408 152h208v-16h-208zm152-280c-10.625 0-21.160156 2.664062-30.457031 7.695312l7.625 14.074219c6.96875-3.769531 14.863281-5.769531 22.832031-5.769531 26.472656 0 48 21.527344 48 48 0 7.976562-1.992188 15.871094-5.769531 22.832031l14.066406 7.625c5.039063-9.289062 7.703125-19.824219 7.703125-30.457031 0-35.289062-28.710938-64-64-64zm0 112c-26.472656 0-48-21.527344-48-48 0-7.976562 1.992188-15.871094 5.769531-22.832031l-14.066406-7.625c-5.039063 9.289062-7.703125 19.824219-7.703125 30.457031 0 35.289062 28.710938 64 64 64 10.632812 0 21.167969-2.664062 30.457031-7.703125l-7.625-14.066406c-6.960937 3.777343-14.855469 5.769531-22.832031 5.769531zm32-48c0 17.648438-14.351562 32-32 32s-32-14.351562-32-32 14.351562-32 32-32 32 14.351562 32 32zm-16 0c0-8.824219-7.175781-16-16-16s-16 7.175781-16 16 7.175781 16 16 16 16-7.175781 16-16zm75.671875-28.222656 28.328125 5.664062v45.109375l-28.328125 5.671875c-1.777344 5.753906-4.078125 11.320313-6.886719 16.632813l16.023438 24.046875-31.898438 31.898437-24.046875-16.023437c-5.3125 2.816406-10.878906 5.117187-16.632812 6.886718l-5.679688 28.335938h-45.109375l-5.671875-28.328125c-5.753906-1.777344-11.320312-4.078125-16.632812-6.886719l-24.046875 16.023438-31.898438-31.898438 16.023438-24.046875c-2.816406-5.3125-5.117188-10.878906-6.886719-16.632812l-28.328125-5.679688v-45.109375l28.328125-5.664062c1.777344-5.753906 4.078125-11.320313 6.886719-16.640625l-16.023438-24.039063 31.90625-31.898437 24.039063 16.023437c5.3125-2.816406 10.871093-5.125 16.632812-6.894531l5.679688-28.328125h45.109375l5.671875 28.328125c5.761719 1.769531 11.320312 4.078125 16.632812 6.894531l24.039063-16.023437 31.90625 31.898437-16.023438 24.039063c2.808594 5.320312 5.109375 10.878906 6.886719 16.640625zm12.328125 18.78125-25.257812-5.046875-1.222657-4.910157c-1.902343-7.648437-4.917969-14.945312-8.976562-21.679687l-2.605469-4.347656 14.277344-21.429688-13.351563-13.351562-21.429687 14.285156-4.34375-2.613281c-6.738282-4.050782-14.035156-7.074219-21.683594-8.984375l-4.910156-1.222657-5.046875-25.257812h-18.890625l-5.046875 25.246094-4.910157 1.226562c-7.648437 1.910156-14.945312 4.933594-21.679687 8.984375l-4.347656 2.613281-21.429688-14.285156-13.351562 13.351563 14.277343 21.429687-2.605468 4.34375c-4.058594 6.746094-7.074219 14.042969-8.976563 21.683594l-1.222656 4.910156-25.265625 5.054688v18.882812l25.257812 5.046875 1.222657 4.910157c1.894531 7.640624 4.917969 14.9375 8.976562 21.691406l2.605469 4.335937-14.277344 21.429688 13.351563 13.351562 21.429687-14.277343 4.335938 2.605468c6.753906 4.058594 14.050781 7.082032 21.691406 8.976563l4.910156 1.222656 5.046875 25.265625h18.890625l5.046875-25.257812 4.910157-1.222657c7.640624-1.894531 14.9375-4.917969 21.691406-8.976562l4.335937-2.605469 21.429688 14.277344 13.351562-13.351563-14.277343-21.429687 2.605468-4.335938c4.058594-6.753906 7.082032-14.050781 8.976563-21.691406l1.222656-4.910156 25.265625-5.054688zm99.3125-230.558594 100.6875 100.6875v283.3125h-152v32c-17.648438 0-32 14.351562-32 32s14.351562 32 32 32v16h-296c-26.472656 0-48-21.527344-48-48v-352c0-26.472656 21.527344-48 48-48h144v-48zm4.6875 96h68.6875l-68.6875-68.6875zm-104 352c0-12.28125 4.640625-23.503906 12.246094-32h-260.246094c-17.648438 0-32 14.351562-32 32s14.351562 32 32 32h260.246094c-7.605469-8.496094-12.246094-19.71875-12.246094-32zm32-48v-336h-272v48h-16v-46.863281c-13.769531 3.574219-24 16-24 30.863281v316.320312c6.617188-5.9375 14.863281-10.054687 24-11.601562v-272.71875h16v272zm152-32v-256h-96v-96h-176v32h136v96h120v16h-120v16h120v16h-120v16h120v16h-120v16h120v16h-120v16h120v16h-120v16h88v16h-88v16h120v16h-120v16zm-184-288v16h16v-16zm-16 0h-16v16h16zm-208 304h16v-16h-16zm32 0h16v-16h-16zm160 72h16v-16h-16zm0 0" fill="url(#a)"/></svg>