<svg height="500pt" viewBox="0 -2 500.944 500" width="500pt" xmlns="http://www.w3.org/2000/svg" xmlns:xlink="http://www.w3.org/1999/xlink"><linearGradient id="a" gradientUnits="userSpaceOnUse" x1="250.4712" x2="250.4712" y1="496.472" y2=".472"><stop offset="0" stop-color="#9f2fff"/><stop offset="1" stop-color="#0bb1d3"/></linearGradient><path d="m388.945312 80.472656c13.230469 0 24-10.769531 24-24 0-13.234375-10.769531-24-24-24-13.234374 0-24 10.765625-24 24 0 13.230469 10.765626 24 24 24zm0-32c4.414063 0 8 3.589844 8 8 0 4.40625-3.585937 8-8 8-4.417968 0-8-3.59375-8-8 0-4.410156 3.582032-8 8-8zm-72 176c-13.234374 0-24 10.765625-24 24 0 13.230469 10.765626 24 24 24 13.230469 0 24-10.769531 24-24 0-13.234375-10.769531-24-24-24zm0 32c-4.417968 0-8-3.59375-8-8 0-4.410156 3.582032-8 8-8 4.414063 0 8 3.589844 8 8 0 4.40625-3.585937 8-8 8zm-208 160c-13.234374 0-24 10.765625-24 24 0 13.230469 10.765626 24 24 24 13.230469 0 24-10.769531 24-24 0-13.234375-10.769531-24-24-24zm0 32c-4.417968 0-8-3.585937-8-8 0-4.417968 3.582032-8 8-8 4.414063 0 8 3.582032 8 8 0 4.414063-3.585937 8-8 8zm96-32c-13.234374 0-24 10.765625-24 24 0 13.230469 10.765626 24 24 24 13.230469 0 24-10.769531 24-24 0-13.234375-10.769531-24-24-24zm0 32c-4.417968 0-8-3.585937-8-8 0-4.417968 3.582032-8 8-8 4.414063 0 8 3.582032 8 8 0 4.414063-3.585937 8-8 8zm96-32c-13.234374 0-24 10.765625-24 24 0 13.230469 10.765626 24 24 24 13.230469 0 24-10.769531 24-24 0-13.234375-10.769531-24-24-24zm0 32c-4.417968 0-8-3.585937-8-8 0-4.417968 3.582032-8 8-8 4.414063 0 8 3.582032 8 8 0 4.414063-3.585937 8-8 8zm96 16c13.230469 0 24-10.769531 24-24 0-13.234375-10.769531-24-24-24-13.234374 0-24 10.765625-24 24 0 13.230469 10.765626 24 24 24zm0-32c4.414063 0 8 3.582032 8 8 0 4.414063-3.585937 8-8 8-4.417968 0-8-3.585937-8-8 0-4.417968 3.582032-8 8-8zm56-47.359375v-8.640625c0-7.066406-3.128906-13.359375-8-17.761718v-46.238282c0-13.234375-10.769531-24-24-24h-10.242187l-16-48h-21.757813v-128h24c30.871094 0 56-25.121094 56-56s-25.128906-56-56-56h-216v32h-32.808593c-3.722657-18.234375-19.878907-32-39.191407-32h-84.945312l-24 48h84.945312v16h-84.945312l24 48h84.945312c19.3125 0 35.46875-13.769531 39.191407-32h32.808593v32h80v128h-21.769531l-16 48h-138.230469c-13.234374 0-24 10.765625-24 24v46.238282c-4.875 4.402343-8 10.695312-8 17.761718v8.640625c-27.089843 3.902344-48 27.207031-48 55.359375 0 30.871094 25.125 56 56 56h384c30.871094 0 56-25.128906 56-56 0-28.152344-20.914062-51.457031-48-55.359375zm-69.769531-128.640625 10.671875 32h-37.792968c8.59375-8.410156 14.457031-19.550781 16.25-32zm-106.230469-8c0-22.058594 17.941407-40 40-40 22.054688 0 40 17.941406 40 40 0 22.054688-17.945312 40-40 40-22.058593 0-40-17.945312-40-40zm160-192c0 22.054688-17.945312 40-40 40h-168v-80h168c22.054688 0 40 17.941406 40 40zm-411.058593-24 8-16h75.058593c10.429688 0 19.328126 6.6875 22.628907 16zm83.058593 64h-75.058593l-8-16h105.6875c-3.300781 9.3125-12.199219 16-22.628907 16zm40-32h-48v-16h80v16zm48-48h16v80h-16zm160 96v96.886719c-10.175781-10.40625-24.335937-16.886719-40-16.886719-15.664062 0-29.824218 6.480469-40 16.886719v-96.886719zm-106.234374 144h10.875c1.789062 12.449219 7.652343 23.589844 16.246093 32h-37.792969zm-173.765626 56c0-4.417968 3.582032-8 8-8h336c4.414063 0 8 3.582032 8 8v40h-288v16h288c4.414063 0 8 3.582032 8 8v8h-368v-8c0-4.417968 3.582032-8 8-8h48v-16h-48zm360 128c0 22.054688-17.945312 40-40 40-22.058593 0-40-17.945312-40-40 0-22.058594 17.941407-40 40-40 22.054688 0 40 17.941406 40 40zm-136 40c-22.058593 0-40-17.945312-40-40 0-22.058594 17.941407-40 40-40 22.054688 0 40 17.941406 40 40 0 22.054688-17.945312 40-40 40zm-96 0c-22.058593 0-40-17.945312-40-40 0-22.058594 17.941407-40 40-40 22.054688 0 40 17.941406 40 40 0 22.054688-17.945312 40-40 40zm-96 0c-22.058593 0-40-17.945312-40-40 0-22.058594 17.941407-40 40-40 22.054688 0 40 17.941406 40 40 0 22.054688-17.945312 40-40 40zm39.109376-80h17.769531c-3.433594 3.359375-6.398438 7.167969-8.886719 11.304688-2.480469-4.136719-5.449219-7.945313-8.882812-11.304688zm96 0h17.769531c-3.433594 3.359375-6.398438 7.167969-8.886719 11.304688-2.480469-4.136719-5.449219-7.945313-8.882812-11.304688zm96 0h17.769531c-3.433594 3.359375-6.398438 7.167969-8.886719 11.304688-2.480469-4.136719-5.449219-7.945313-8.882812-11.304688zm-279.109376 80c-22.058593 0-40-17.945312-40-40 0-22.058594 17.941407-40 40-40h8.886719c-10.40625 10.175782-16.886719 24.335938-16.886719 40 0 15.664063 6.480469 29.824219 16.886719 40zm87.109376 0c3.433593-3.359375 6.402343-7.167968 8.890624-11.304687 2.488282 4.136719 5.453126 7.953125 8.886719 11.304687zm96 0c3.433593-3.359375 6.402343-7.167968 8.890624-11.304687 2.488282 4.136719 5.453126 7.953125 8.886719 11.304687zm96 0c3.433593-3.359375 6.402343-7.167968 8.890624-11.304687 2.488282 4.136719 5.453126 7.953125 8.886719 11.304687zm104.890624 0h-8.890624c10.410156-10.175781 16.890624-24.335937 16.890624-40 0-15.664062-6.480468-29.824218-16.890624-40h8.890624c22.054688 0 40 17.941406 40 40 0 22.054688-17.945312 40-40 40zm0 0" fill="url(#a)"/></svg>