<svg height="496pt" viewBox="0 0 496 496" width="496pt" xmlns="http://www.w3.org/2000/svg" xmlns:xlink="http://www.w3.org/1999/xlink"><linearGradient id="a" gradientUnits="userSpaceOnUse" x1="248" x2="248" y1="496" y2="0"><stop offset="0" stop-color="#9f2fff"/><stop offset="1" stop-color="#0bb1d3"/></linearGradient><path d="m416 256v-232c0-13.230469-10.769531-24-24-24h-288c-13.230469 0-24 10.769531-24 24v232h75.289062c-9.234374 9.71875-16.90625 20.871094-22.746093 33.097656l-.128907-.257812-36.414062 18.214844v90.359374l41.847656 16.746094 18.65625 46.640625c8.550782 21.382813 28.960938 35.199219 51.992188 35.199219h79.007812c23.03125 0 43.441406-13.824219 52-35.199219l18.65625-46.640625 41.839844-16.746094v-90.359374l-36.425781-18.207032-.125.257813c-5.839844-12.226563-13.511719-23.386719-22.746094-33.097657h75.296875zm-312-240h288c4.40625 0 8 3.585938 8 8v40h-304v-40c0-4.414062 3.59375-8 8-8zm-8 64h304v160h-77.664062c-20.984376-15.039062-46.609376-24-74.335938-24s-53.351562 8.960938-74.335938 24h-77.664062zm200 296c-4.40625 0-8-3.585938-8-8s3.59375-8 8-8 8 3.585938 8 8-3.59375 8-8 8zm-1.792969-31.816406c-12.382812.9375-22.207031 11.191406-22.207031 23.816406 0 10.414062 6.710938 19.214844 16 22.527344v33.472656h-80v-33.472656c9.289062-3.3125 16-12.113282 16-22.527344 0-12.625-9.824219-22.878906-22.207031-23.816406l-6.945313-34.726563c14.847656 6.039063 32.679688 10.542969 53.152344 10.542969s38.304688-4.503906 53.152344-10.542969zm-94.207031 31.816406c-4.40625 0-8-3.585938-8-8s3.59375-8 8-8 8 3.585938 8 8-3.59375 8-8 8zm56-72.328125v-23.671875h-16v23.664062c-38.59375-2.574218-66.230469-22.953124-77.039062-32.359374 18.925781-22.113282 46.269531-36.710938 77.039062-38.90625v15.601562h16v-15.59375c30.777344 2.195312 58.128906 16.800781 77.054688 38.921875-10.75 9.40625-38.285157 29.777344-77.054688 32.34375zm-144 82.914063v-69.640626l12.558594-6.28125c-2.878906 10.648438-4.558594 21.792969-4.558594 33.335938v.886719c0 16.351562 3.078125 32.34375 9.152344 47.527343l.488281 1.21875zm59.359375 68.269531-27.34375-68.375c-5.320313-13.289063-8.015625-27.28125-8.015625-41.59375v-.886719c0-21.960938 6.449219-42.40625 17.414062-59.71875 5.195313 4.472656 13.097657 10.503906 23.363282 16.375l9.535156 47.671875c-6.214844 4.351563-10.3125 11.527344-10.3125 19.671875 0 10.414062 6.710938 19.214844 16 22.527344v85.886718c-9.214844-4.15625-16.703125-11.703124-20.640625-21.558593zm37.136719 25.144531c-.167969 0-.328125-.03125-.496094-.039062v-39.960938h80v39.960938c-.167969 0-.328125.039062-.496094.039062zm116.152344-25.144531c-3.945313 9.847656-11.433594 17.402343-20.648438 21.550781v-85.878906c9.289062-3.3125 16-12.113282 16-22.527344 0-8.144531-4.097656-15.320312-10.3125-19.664062l9.535156-47.671876c10.265625-5.871093 18.167969-11.902343 23.363282-16.375 10.964843 17.304688 17.414062 37.75 17.414062 59.710938v.886719c0 14.3125-2.695312 28.304687-8.007812 41.59375zm59.351562-137.910157v69.640626l-17.640625 7.054687.488281-1.214844c6.074219-15.195312 9.152344-31.1875 9.152344-47.539062v-.886719c0-11.542969-1.679688-22.6875-4.558594-33.335938zm44.289062 6.773438c7.550782 7.554688 11.710938 17.59375 11.710938 28.28125s-4.160156 20.726562-11.710938 28.28125l-11.3125-11.3125c4.527344-4.527344 7.023438-10.5625 7.023438-16.96875s-2.496094-12.441406-7.023438-16.96875zm27.710938 28.28125c0-14.953125-5.824219-29.023438-16.398438-39.601562l11.308594-11.308594c13.601563 13.597656 21.089844 31.6875 21.089844 50.910156s-7.488281 37.3125-21.089844 50.910156l-11.308594-11.308594c10.574219-10.578124 16.398438-24.648437 16.398438-39.601562zm-376.976562-16.96875c-4.527344 4.527344-7.023438 10.5625-7.023438 16.96875s2.496094 12.441406 7.023438 16.96875l-11.3125 11.3125c-7.550782-7.554688-11.710938-17.59375-11.710938-28.28125s4.160156-20.726562 11.710938-28.28125zm-39.023438 16.96875c0 14.953125 5.824219 29.023438 16.398438 39.601562l-11.308594 11.308594c-13.601563-13.597656-21.089844-31.6875-21.089844-50.910156s7.488281-37.3125 21.089844-50.910156l11.308594 11.308594c-10.574219 10.578124-16.398438 24.648437-16.398438 39.601562zm-24-160h-16v-80c0-13.230469 10.769531-24 24-24h12.6875l-10.34375-10.34375 11.3125-11.3125 29.65625 29.65625-29.65625 29.65625-11.3125-11.3125 10.34375-10.34375h-12.6875c-4.40625 0-8 3.585938-8 8zm480-80v80h-16v-80c0-4.414062-3.59375-8-8-8h-12.6875l10.34375 10.34375-11.3125 11.3125-29.65625-29.65625 29.65625-29.65625 11.3125 11.3125-10.34375 10.34375h12.6875c13.230469 0 24 10.769531 24 24zm-112 8h-112v-16h112zm0 64h-112v-16h112zm-64-32h-48v-16h48zm16-16h48v16h-48zm-112-16h-112v-16h112zm0 64h-112v-16h112zm-64-32h-48v-16h48zm16-16h48v16h-48zm-48-88h-16v-16h16zm32 0h-16v-16h16zm32 0h-16v-16h16zm288 168h16v16h-16zm0 40h16v16h-16zm0 40h16v16h-16zm-464-64h-16v-16h16zm0 40h-16v-16h16zm0 40h-16v-16h16zm0 0" fill="url(#a)"/></svg>