<svg height="496pt" viewBox="0 -1 496 495" width="496pt" xmlns="http://www.w3.org/2000/svg" xmlns:xlink="http://www.w3.org/1999/xlink"><linearGradient id="a" gradientUnits="userSpaceOnUse" x1="248" x2="248" y1="494.156" y2=".5"><stop offset="0" stop-color="#9f2fff"/><stop offset="1" stop-color="#0bb1d3"/></linearGradient><path d="m157.496094 209.804688c-24.183594-24.175782-37.496094-56.320313-37.496094-90.503907 0-34.191406 13.3125-66.335937 37.496094-90.511719l11.3125 11.3125c-21.160156 21.152344-32.808594 49.269532-32.808594 79.199219 0 29.910157 11.648438 58.039063 32.808594 79.191407zm-77.496094-90.503907c0 44.871094 17.480469 87.0625 49.199219 118.792969l11.3125-11.3125c-28.695313-28.722656-44.511719-66.882812-44.511719-107.480469 0-40.601562 15.816406-78.777343 44.511719-107.488281l-11.3125-11.3125c-31.71875 31.726562-49.199219 73.910156-49.199219 118.800781zm247.191406-79.207031c21.160156 21.160156 32.808594 49.277344 32.808594 79.199219 0 29.910156-11.648438 58.039062-32.808594 79.191406l11.3125 11.3125c24.183594-24.167969 37.496094-56.3125 37.496094-90.496094 0-34.191406-13.3125-66.335937-37.496094-90.511719zm28.296875 186.679688 11.3125 11.3125c31.71875-31.730469 49.199219-73.914063 49.199219-118.785157 0-44.878906-17.480469-87.074219-49.199219-118.800781l-11.3125 11.3125c28.695313 28.710938 44.511719 66.878906 44.511719 107.488281 0 40.605469-15.816406 78.757813-44.511719 107.472657zm26.390625 251.382812h82.121094v16h-432v-16h82.121094l75-240h-5.121094v-24c0-10.34375 6.609375-19.097656 15.800781-22.464844-23.945312-15.742187-39.800781-42.808594-39.800781-73.535156 0-48.519531 39.480469-88 88-88s88 39.480469 88 88c0 30.726562-15.863281 57.792969-39.800781 73.535156 9.191406 3.367188 15.800781 12.121094 15.800781 22.464844v24h-5.121094zm-192.6875-112 58.808594 34.847656 58.808594-34.847656zm126.632813-16-67.824219-63.832031-67.824219 63.832031zm-52.128907 60.144531 98.457032 58.34375-30.769532-98.457031zm55.570313-78.878906-27.089844-86.683594-32.503906 30.59375zm-43.441406-93.265625h-55.648438l27.824219 26.183594zm-72.007813 6.582031-27.089844 86.683594 59.59375-56.089844zm-69.96875 223.914063 98.457032-58.34375-67.6875-40.113282zm15.34375 9.503906h197.617188l-98.808594-58.550781zm69.464844-341c8.589844-2.472656 18.398438-4.136719 29.34375-4.136719 11.152344 0 21.113281 1.738281 29.816406 4.289063 1.335938-5.6875 2.183594-11.671875 2.183594-18.007813 0-7.089843-1.039062-13.800781-2.65625-20.136719-8.589844 2.472657-18.398438 4.136719-29.34375 4.136719-11.152344 0-21.113281-1.738281-29.816406-4.289062-1.335938 5.679687-2.183594 11.664062-2.183594 18 0 7.097656 1.039062 13.800781 2.65625 20.144531zm4.632812-53.359375c7.246094 2.085937 15.519532 3.496094 24.710938 3.496094 8.910156 0 16.96875-1.320313 24.0625-3.304688-7.359375-16.441406-18.015625-28.71875-24.207031-34.984375-6.359375 6.121094-17.289063 18.257813-24.566407 34.792969zm.648438 68.527344c7.359375 16.441406 18.015625 28.71875 24.207031 34.984375 6.351563-6.121094 17.28125-18.25 24.558594-34.792969-7.246094-2.085937-15.519531-3.496094-24.710937-3.496094-8.902344-.007812-16.960938 1.320313-24.054688 3.304688zm77.277344 14.160156c-3.144532-2.328125-7.6875-5.304687-13.503906-8.160156-4.847657 11.273437-11.109376 20.761719-17.046876 28.121093 11.863282-3.945312 22.328126-10.90625 30.550782-19.960937zm18.785156-48.328125c0-12.855469-3.425781-24.902344-9.351562-35.359375-4.25 3.160156-10.359376 7.101563-18.183594 10.71875 2.175781 8.007813 3.535156 16.617187 3.535156 25.785156 0 8.445313-1.199219 16.335938-3.078125 23.710938 7.605469 3.558593 13.550781 7.417969 17.71875 10.511719 5.933594-10.464844 9.359375-22.511719 9.359375-35.367188zm-50.390625-68.679688c5.964844 7.527344 12.414063 17.253907 17.46875 28.832032 6.121094-2.953125 10.867187-6.066406 14.136719-8.480469-8.480469-9.328125-19.3125-16.472656-31.605469-20.351563zm-74.824219 20.351563c3.144532 2.328125 7.6875 5.304687 13.503906 8.160156 4.847657-11.273437 11.109376-20.761719 17.046876-28.121093-11.863282 3.945312-22.328126 10.90625-30.550782 19.960937zm-18.785156 48.328125c0 12.855469 3.425781 24.902344 9.351562 35.359375 4.25-3.160156 10.359376-7.105469 18.183594-10.71875-2.175781-8.007813-3.535156-16.617187-3.535156-25.785156 0-8.449219 1.199219-16.335938 3.078125-23.710938-7.605469-3.5625-13.550781-7.417969-17.71875-10.511719-5.933594 10.464844-9.359375 22.511719-9.359375 35.367188zm50.390625 68.679688c-5.964844-7.527344-12.414063-17.257813-17.46875-28.832032-6.121094 2.953125-10.867187 6.0625-14.136719 8.480469 8.480469 9.328125 19.3125 16.472656 31.605469 20.351563zm-18.390625 19.320312c-4.414062 0-8 3.582031-8 8v8h96v-8c0-4.417969-3.585938-8-8-8zm272 288h16v-16h-16zm-480 0h16v-16h-16zm0 0" fill="url(#a)"/></svg>