<svg height="496pt" viewBox="0 0 496 496" width="496pt" xmlns="http://www.w3.org/2000/svg" xmlns:xlink="http://www.w3.org/1999/xlink"><linearGradient id="a" gradientUnits="userSpaceOnUse" x1="248" x2="248" y1="496" y2="0"><stop offset="0" stop-color="#9f2fff"/><stop offset="1" stop-color="#0bb1d3"/></linearGradient><path d="m480 136c0-22.054688-17.945312-40-40-40h-40v16h40c13.230469 0 24 10.769531 24 24v280h-16v-272c0-8.824219-7.175781-16-16-16h-32v-43.3125l-84.6875-84.6875h-219.3125v96h-40c-22.054688 0-40 17.945312-40 40v280h-16v40c0 22.054688 17.945312 40 40 40h416c22.054688 0 40-17.945312 40-40v-40h-16zm-48 8v272h-368v-272h32v256h304v-256zm-128 288v8c0 4.414062-3.59375 8-8 8h-96c-4.40625 0-8-3.585938-8-8v-8zm-64-248c0-4.414062 3.59375-8 8-8s8 3.585938 8 8-3.59375 8-8 8-8-3.585938-8-8zm8 56c40.191406 0 74.105469 27.121094 84.59375 64h-169.1875c10.488281-36.878906 44.402344-64 84.59375-64zm56 144v-16h32v16zm-96 0v-16h80v16zm-48-56c0-2.703125.167969-5.359375.40625-8h175.195312c.230469 2.640625.398438 5.296875.398438 8v24h-32v-16h-16v16h-80v-16h-16v16h-32zm0 40h32v16h-32zm160-340.6875 52.6875 52.6875h-52.6875zm-208-11.3125h192v80h80v288h-32v-56c0-54.640625-42.390625-99.480469-96-103.59375v-17.878906c9.289062-3.3125 16-12.113282 16-22.527344 0-13.230469-10.769531-24-24-24s-24 10.769531-24 24c0 10.414062 6.710938 19.214844 16 22.527344v17.878906c-53.609375 4.113281-96 48.953125-96 103.59375v56h-32zm-80 120c0-13.230469 10.769531-24 24-24h40v16h-32c-8.824219 0-16 7.175781-16 16v272h-16zm448 320c0 13.230469-10.769531 24-24 24h-416c-13.230469 0-24-10.769531-24-24v-24h160v8c0 13.230469 10.769531 24 24 24h96c13.230469 0 24-10.769531 24-24v-8h160zm-240-424h-112v112h112zm-16 96h-80v-80h80zm-24-48h-32v-16h32zm0 32h-32v-16h32zm-56 48h64v16h-64zm0 32h64v16h-64zm224-48h-64v-16h64zm0 64h-64v-16h64zm0-32h-64v-16h64zm-144 112h-16v-16h16zm64 0h-16v-16h16zm0 0" fill="url(#a)"/></svg>