<svg height="496pt" viewBox="0 0 496 496" width="496pt" xmlns="http://www.w3.org/2000/svg" xmlns:xlink="http://www.w3.org/1999/xlink"><linearGradient id="a" gradientTransform="matrix(8 0 0 -8 -8 504)" gradientUnits="userSpaceOnUse" x1="32" x2="32" y1="1" y2="63"><stop offset="0" stop-color="#9f2fff"/><stop offset="1" stop-color="#0bb1d3"/></linearGradient><path d="m464 224h-104v-16h104zm-16-32h16v-16h-16zm-16-16h-72v16h72zm32-32h-104v16h104zm0-32h-104v16h104zm-320 304h80v-16h-80zm48-32h32v-16h-32zm-16-16h-32v16h32zm-32-16h80v-16h-80zm0-96h80v-16h-80zm0 64h80v-16h-80zm208-64c13.230469 0 24 10.769531 24 24 0 10.414062-6.710938 19.214844-16 22.527344v33.472656h72v16h32v64h-32v48h-160v-48h-32v-64h32v-16h72v-33.472656c-9.289062-3.3125-16-12.113282-16-22.527344 0-13.230469 10.769531-24 24-24zm-80 144v-32h-16v32zm112 16h-64v32h64zm48-48v32h16v-32zm-16-16h-128v96h16v-48h96v48h16zm-72-72c0 4.40625 3.59375 8 8 8s8-3.59375 8-8-3.59375-8-8-8-8 3.59375-8 8zm-112-136c-8.824219 0-16-7.175781-16-16h-16c0 14.863281 10.238281 27.289062 24 30.863281v17.136719h16v-17.136719c13.761719-3.574219 24-16 24-30.863281 0-17.648438-14.351562-32-32-32-8.824219 0-16-7.175781-16-16s7.175781-16 16-16 16 7.175781 16 16h16c0-14.863281-10.238281-27.289062-24-30.863281v-17.136719h-16v17.136719c-13.761719 3.574219-24 16-24 30.863281 0 17.648438 14.351562 32 32 32 8.824219 0 16 7.175781 16 16s-7.175781 16-16 16zm88 224h-16v16h16zm80 0h-16v16h16zm-240-96h-16v16h16zm16 0v16h16v-16zm32 16h16v-16h-16zm-32-192h-16v16h16zm128 0h-16v16h16zm29.097656-16h162.902344v416h-448c-26.472656 0-48-21.527344-48-48v-400c0-26.472656 21.527344-48 48-48h64v80h18.902344c10.882812-45.792969 52.019531-80 101.097656-80s90.214844 34.207031 101.097656 80zm-189.097656 24c0 48.519531 39.480469 88 88 88s88-39.480469 88-88-39.480469-88-88-88-88 39.480469-88 88zm-128 308.257812c8.496094-7.617187 19.71875-12.257812 32-12.257812h48v-384h-48c-17.648438 0-32 14.351562-32 32zm319.59375-316.257812c.199219 2.648438.40625 5.296875.40625 8 0 57.34375-46.65625 104-104 104s-104-46.65625-104-104c0-2.703125.199219-5.351562.40625-8h-16.40625v320h-64c-17.648438 0-32 14.351562-32 32s14.351562 32 32 32h432v-384zm0 0" fill="url(#a)"/></svg>