<svg height="496pt" viewBox="0 -64 496 496" width="496pt" xmlns="http://www.w3.org/2000/svg" xmlns:xlink="http://www.w3.org/1999/xlink"><linearGradient id="a" gradientUnits="userSpaceOnUse" x1="248" x2="248" y1="368" y2="0"><stop offset="0" stop-color="#9f2fff"/><stop offset="1" stop-color="#0bb1d3"/></linearGradient><path d="m408 176c48.519531 0 88-39.480469 88-88s-39.480469-88-88-88h-320c-48.519531 0-88 39.480469-88 88s39.480469 88 88 88h72v80h-104c-30.878906 0-56 25.121094-56 56s25.121094 56 56 56h384c30.878906 0 56-25.121094 56-56s-25.121094-56-56-56h-104v-80zm-392-88c0-39.695312 32.304688-72 72-72h320c39.695312 0 72 32.304688 72 72s-32.304688 72-72 72h-320c-39.695312 0-72-32.304688-72-72zm176 184h112v16h-112zm16-16v-80h80v80zm-32-80h16v80h-16zm-120 96h72v16h-103.792969c7.304688-9.65625 18.777344-16 31.792969-16zm423.191406 48h-87.191406v16h79.792969c-7.3125 9.65625-18.785157 16-31.792969 16h-384c-13.015625 0-24.488281-6.34375-31.792969-16h351.792969v-16h-359.191406c-.527344-2.585938-.808594-5.265625-.808594-8s.28125-5.414062.808594-8h127.191406v-32h32v32h144v-32h32v32h127.191406c.527344 2.585938.808594 5.265625.808594 8s-.28125 5.414062-.808594 8zm-7.398437-32h-103.792969v-16h72c13.015625 0 24.488281 6.34375 31.792969 16zm-151.792969-32h-16v-80h16zm112-168c0-30.878906-25.121094-56-56-56h-64c-30.878906 0-56 25.121094-56 56s25.121094 56 56 56h64c30.878906 0 56-25.121094 56-56zm-56 40h-64c-22.054688 0-40-17.945312-40-40s17.945312-40 40-40h64c22.054688 0 40 17.945312 40 40s-17.945312 40-40 40zm-192-96h-64c-30.878906 0-56 25.121094-56 56s25.121094 56 56 56h64c30.878906 0 56-25.121094 56-56s-25.121094-56-56-56zm-32 96c-22.054688 0-40-17.945312-40-40s17.945312-40 40-40 40 17.945312 40 40-17.945312 40-40 40zm-72-40c0-19.34375 13.808594-35.511719 32.070312-39.199219-9.925781 10.109375-16.070312 23.941407-16.070312 39.199219s6.144531 29.089844 16.070312 39.199219c-18.261718-3.6875-32.070312-19.855469-32.070312-39.199219zm111.929688 39.199219c9.925781-10.109375 16.070312-23.941407 16.070312-39.199219s-6.144531-29.089844-16.070312-39.199219c18.261718 3.6875 32.070312 19.855469 32.070312 39.199219s-13.808594 35.511719-32.070312 39.199219zm120.070312-63.199219c-13.230469 0-24 10.769531-24 24s10.769531 24 24 24 24-10.769531 24-24-10.769531-24-24-24zm0 32c-4.40625 0-8-3.59375-8-8s3.59375-8 8-8 8 3.59375 8 8-3.59375 8-8 8zm64-32c-13.230469 0-24 10.769531-24 24s10.769531 24 24 24 24-10.769531 24-24-10.769531-24-24-24zm0 32c-4.40625 0-8-3.59375-8-8s3.59375-8 8-8 8 3.59375 8 8-3.59375 8-8 8zm-224-32c-13.230469 0-24 10.769531-24 24s10.769531 24 24 24 24-10.769531 24-24-10.769531-24-24-24zm0 32c-4.40625 0-8-3.59375-8-8s3.59375-8 8-8 8 3.59375 8 8-3.59375 8-8 8zm312 16h-16v-16h16zm-432-16h16v16h-16zm0 0" fill="url(#a)"/></svg>