<svg height="496pt" viewBox="0 0 496 496" width="496pt" xmlns="http://www.w3.org/2000/svg" xmlns:xlink="http://www.w3.org/1999/xlink"><linearGradient id="a" gradientUnits="userSpaceOnUse" x1="248" x2="248" y1="496" y2="0"><stop offset="0" stop-color="#9f2fff"/><stop offset="1" stop-color="#0bb1d3"/></linearGradient><path d="m248 216c-17.648438 0-32 14.351562-32 32s14.351562 32 32 32 32-14.351562 32-32-14.351562-32-32-32zm0 48c-8.824219 0-16-7.175781-16-16s7.175781-16 16-16 16 7.175781 16 16-7.175781 16-16 16zm-152 96c0 4.414062-3.585938 8-8 8s-8-3.585938-8-8 3.585938-8 8-8 8 3.585938 8 8zm8-80c0 4.414062-3.585938 8-8 8s-8-3.585938-8-8 3.585938-8 8-8 8 3.585938 8 8zm16-80c0-4.414062 3.585938-8 8-8s8 3.585938 8 8-3.585938 8-8 8-8-3.585938-8-8zm24-96c0-4.414062 3.585938-8 8-8s8 3.585938 8 8-3.585938 8-8 8-8-3.585938-8-8zm-64 32c0-4.414062 3.585938-8 8-8s8 3.585938 8 8-3.585938 8-8 8-8-3.585938-8-8zm88 272c0 4.414062-3.585938 8-8 8s-8-3.585938-8-8 3.585938-8 8-8 8 3.585938 8 8zm32 8h16c0 22.054688-17.945312 40-40 40v-16c13.230469 0 24-10.769531 24-24zm-48-376h16c0 17.648438 14.351562 32 32 32v16c-26.472656 0-48-21.527344-48-48zm0 320c-22.054688 0-40-17.945312-40-40h16c0 13.230469 10.769531 24 24 24zm-88-104v-16c8.824219 0 16-7.175781 16-16h16c0 17.648438-14.351562 32-32 32zm256-256c-31.695312 0-59.054688 18.566406-72 45.359375-12.945312-26.792969-40.304688-45.359375-72-45.359375-39.167969 0-71.785156 28.3125-78.625 65.527344-33.070312 6.832031-57.375 36.144531-57.375 70.472656 0 13.3125 3.792969 26.367188 10.695312 37.632812-29.640624 11.726563-50.695312 40.605469-50.695312 74.367188s21.054688 62.640625 50.695312 74.367188c-6.902343 11.265624-10.695312 24.320312-10.695312 37.632812 0 34.328125 24.304688 63.640625 57.375 70.472656 6.839844 37.214844 39.457031 65.527344 78.625 65.527344 31.695312 0 59.054688-18.566406 72-45.359375 12.945312 26.792969 40.304688 45.359375 72 45.359375 97.046875 0 176-111.257812 176-248s-78.953125-248-176-248zm-144 480c-35.289062 0-64-28.710938-64-64 0-10.34375 2.390625-20.214844 7.105469-29.335938l-14.210938-7.34375c-5.460937 10.566407-8.398437 22.398438-8.75 34.359376-23.402343-6.894532-40.144531-28.558594-40.144531-53.679688 0-12.121094 3.894531-23.488281 11.039062-33.144531 4.226563.6875 8.535157 1.144531 12.960938 1.144531v-16c-35.289062 0-64-28.710938-64-64s28.710938-64 64-64v-16c-4.425781 0-8.734375.457031-12.96875 1.144531-7.144531-9.65625-11.03125-21.023437-11.03125-33.144531 0-25.121094 16.734375-46.777344 40.128906-53.671875.640625 21.871094 10.175782 42.65625 26.535156 57.296875l10.671876-11.921875c-13.558594-12.136719-21.335938-29.527344-21.335938-47.703125 0-35.289062 28.710938-64 64-64s64 28.710938 64 64v56h-14.246094l-5.011718 20.023438c-6.414063 1.90625-12.605469 4.472656-18.496094 7.671874l-17.710938-10.632812-31.457031 31.457031 10.632813 17.710938c-3.207032 5.890625-5.773438 12.082031-7.671876 18.496093l-20.039062 5.027344v44.492188l20.023438 5.011718c1.90625 6.414063 4.472656 12.605469 7.671874 18.496094l-10.632812 17.710938 31.457031 31.457031 17.710938-10.632813c5.890625 3.207032 12.082031 5.773438 18.496093 7.671876l5.027344 20.039062h14.246094v56c0 35.289062-28.710938 64-64 64zm140.191406-273.65625c4.351563 7.113281 7.550782 14.816406 9.496094 22.894531l1.136719 4.714844 17.175781 4.292969v19.507812l-17.167969 4.292969-1.136719 4.714844c-1.941406 8.078125-5.144531 15.78125-9.496093 22.894531l-2.535157 4.136719 9.121094 15.191406-13.792968 13.792969-15.191407-9.121094-4.136719 2.535156c-7.113281 4.351563-14.816406 7.550782-22.894531 9.496094l-4.714843 1.136719-4.300782 17.175781h-19.507812l-4.292969-17.167969-4.714844-1.136719c-8.078125-1.941406-15.78125-5.144531-22.894531-9.496093l-4.136719-2.535157-15.191406 9.121094-13.792969-13.792968 9.121094-15.191407-2.535156-4.136719c-4.351563-7.113281-7.550782-14.816406-9.496094-22.894531l-1.136719-4.714843-17.175781-4.300782v-19.507812l17.167969-4.292969 1.136719-4.714844c1.941406-8.078125 5.144531-15.78125 9.496093-22.894531l2.535157-4.136719-9.121094-15.191406 13.792968-13.792969 15.191407 9.121094 4.136719-2.535156c7.113281-4.351563 14.816406-7.550782 22.894531-9.496094l4.714843-1.136719 4.300782-17.175781h19.507812l4.292969 17.167969 4.714844 1.136719c8.078125 1.941406 15.78125 5.144531 22.894531 9.496093l4.136719 2.535157 15.191406-9.121094 13.792969 13.792968-9.121094 15.191407zm3.808594 273.65625c-35.289062 0-64-28.710938-64-64v-56h14.246094l5.011718-20.023438c6.414063-1.90625 12.605469-4.472656 18.496094-7.671874l17.710938 10.632812 31.457031-31.457031-10.632813-17.710938c3.207032-5.890625 5.773438-12.082031 7.671876-18.496093l20.039062-5.027344v-44.492188l-20.023438-5.011718c-1.90625-6.414063-4.472656-12.605469-7.671874-18.496094l10.632812-17.710938-31.457031-31.457031-17.710938 10.632813c-5.890625-3.207032-12.082031-5.773438-18.496093-7.671876l-5.027344-20.039062h-14.246094v-56c0-35.289062 28.710938-64 64-64 88.222656 0 160 104.070312 160 232s-71.777344 232-160 232zm136-240c4.414062 0 8 3.585938 8 8s-3.585938 8-8 8-8-3.585938-8-8 3.585938-8 8-8zm-81.070312 196c2.207031 3.824219.894531 8.71875-2.929688 10.929688-3.824219 2.207031-8.71875.894531-10.929688-2.929688-2.207031-3.824219-.894531-8.71875 2.929688-10.929688 3.824219-2.207031 8.71875-.894531 10.929688 2.929688zm60.132812-64c-2.207031 3.824219-7.101562 5.136719-10.925781 2.929688-3.824219-2.210938-5.136719-7.105469-2.929688-10.929688s7.105469-5.136719 10.929688-2.929688c3.824219 2.210938 5.136719 7.105469 2.925781 10.929688zm6.121094-72.238281c1.144531-4.265625 5.527344-6.800781 9.800781-5.65625 4.273437 1.140625 6.800781 5.527343 5.65625 9.796875-1.144531 4.273437-5.527344 6.800781-9.800781 5.65625-4.265625-1.144532-6.800782-5.527344-5.65625-9.796875zm-129.183594 132.238281h32v16h-32c-13.230469 0-24-10.769531-24-24v-56h16v56c0 4.414062 3.59375 8 8 8zm40-72h48v16h-48c-4.40625 0-8 3.59375-8 8v32h-16v-32c0-13.230469 10.769531-24 24-24zm32-64h32v16h-32c-4.40625 0-8 3.59375-8 8v24h-16v-24c0-13.230469 10.769531-24 24-24zm-22.929688-252c2.210938-3.824219 7.105469-5.136719 10.929688-2.929688 3.824219 2.210938 5.136719 7.105469 2.929688 10.929688-2.210938 3.824219-7.105469 5.136719-10.929688 2.929688-3.824219-2.210938-5.136719-7.105469-2.929688-10.929688zm60.136719 80c-2.207031-3.824219-.894531-8.71875 2.929688-10.929688 3.824219-2.207031 8.71875-.894531 10.925781 2.929688 2.210938 3.824219.898438 8.71875-2.925781 10.929688-3.832031 2.207031-8.722657.894531-10.929688-2.929688zm19.976563 64.230469c-1.144532-4.261719 1.390625-8.65625 5.65625-9.796875 4.273437-1.144532 8.65625 1.390625 9.800781 5.65625 1.144531 4.269531-1.394531 8.652344-5.65625 9.796875-4.273437 1.152343-8.65625-1.382813-9.800781-5.65625zm-97.183594-132.230469h-32c-4.40625 0-8 3.59375-8 8v56h-16v-56c0-13.230469 10.769531-24 24-24h32zm56 72h-48c-13.230469 0-24-10.769531-24-24v-32h16v32c0 4.40625 3.59375 8 8 8h48zm-16 48h32v16h-32c-13.230469 0-24-10.769531-24-24v-24h16v24c0 4.40625 3.59375 8 8 8zm48 80h-56v-16h56zm-120-8c0 10.625-2.664062 21.160156-7.695312 30.457031l-14.074219-7.625c3.769531-6.96875 5.769531-14.855469 5.769531-22.832031 0-26.472656-21.527344-48-48-48-7.976562 0-15.863281 2-22.832031 5.769531l-7.625-14.074219c9.296875-5.03125 19.832031-7.695312 30.457031-7.695312 35.289062 0 64 28.710938 64 64zm-41.167969 42.230469 7.625 14.074219c-9.296875 5.03125-19.832031 7.695312-30.457031 7.695312-35.289062 0-64-28.710938-64-64 0-10.625 2.664062-21.160156 7.695312-30.457031l14.074219 7.625c-3.769531 6.96875-5.769531 14.855469-5.769531 22.832031 0 26.472656 21.527344 48 48 48 7.976562 0 15.863281-2 22.832031-5.769531zm0 0" fill="url(#a)"/></svg>