<svg height="496pt" viewBox="0 0 496 496" width="496pt" xmlns="http://www.w3.org/2000/svg" xmlns:xlink="http://www.w3.org/1999/xlink"><linearGradient id="a" gradientTransform="matrix(8 0 0 -8 -8 504)" gradientUnits="userSpaceOnUse" x1="32" x2="32" y1="1" y2="63"><stop offset="0" stop-color="#9f2fff"/><stop offset="1" stop-color="#0bb1d3"/></linearGradient><path d="m256 456h-16v-16h16zm224-384c0-30.878906-25.128906-56-56-56s-56 25.121094-56 56c0 6.839844 1.328125 13.566406 3.726562 19.894531l28.601563-16.679687c-.144531-1.0625-.328125-2.109375-.328125-3.214844 0-13.230469 10.769531-24 24-24s24 10.769531 24 24-10.769531 24-24 24c-1.390625 0-2.734375-.183594-4.070312-.40625l-67.929688 75.476562v69.746094c18.230469 3.71875 32 19.871094 32 39.191406v80.488282l2.121094 2.351562c11.320312-7.007812 24.472656-10.847656 37.878906-10.847656 39.703125 0 72 32.304688 72 72s-32.296875 72-72 72-72-32.304688-72-72h16c0 30.878906 25.128906 56 56 56s56-25.121094 56-56-25.128906-56-56-56c-9.617188 0-18.800781 2.375-27.007812 6.929688l22.9375 25.484374c1.335937-.230468 2.679687-.414062 4.070312-.414062 13.230469 0 24 10.769531 24 24s-10.769531 24-24 24-24-10.769531-24-24c0-1.105469.183594-2.152344.328125-3.214844l-90.488281-52.785156h-37.839844v32h32c13.230469 0 24 10.769531 24 24v48c0 13.230469-10.769531 24-24 24h-112c-13.230469 0-24-10.769531-24-24v-48c0-13.230469 10.769531-24 24-24h32v-32h-37.839844l-47.886718 27.9375c3.742187 8.832031 5.726562 18.382812 5.726562 28.0625 0 39.695312-32.296875 72-72 72s-72-32.304688-72-72 32.296875-72 72-72v16c-30.871094 0-56 25.121094-56 56s25.128906 56 56 56 56-25.121094 56-56c0-6.839844-1.328125-13.566406-3.726562-19.894531l-28.601563 16.679687c.144531 1.0625.328125 2.109375.328125 3.214844 0 13.230469-10.769531 24-24 24s-24-10.769531-24-24 10.769531-24 24-24c1.390625 0 2.734375.183594 4.070312.40625l35.929688-39.917969v-80.488281c0-19.3125 13.769531-35.472656 32-39.191406v-69.746094l-34.121094-37.910156c-11.320312 7.007812-24.472656 10.847656-37.878906 10.847656-39.703125 0-72-32.304688-72-72s32.296875-72 72-72 72 32.304688 72 72h-16c0-30.878906-25.128906-56-56-56s-56 25.121094-56 56 25.128906 56 56 56c9.617188 0 18.800781-2.375 27.007812-6.929688l-22.9375-25.484374c-1.335937.230468-2.679687.414062-4.070312.414062-13.230469 0-24-10.769531-24-24s10.769531-24 24-24 24 10.769531 24 24c0 1.105469-.183594 2.152344-.328125 3.214844l90.488281 52.785156h123.679688l47.886718-27.9375c-3.742187-8.832031-5.726562-18.382812-5.726562-28.0625 0-39.695312 32.296875-72 72-72s72 32.304688 72 72-32.296875 72-72 72v-16c30.871094 0 56-25.121094 56-56zm-159.558594 283.664062 79.359375 46.289063-59.066406-65.625c-10.246094 1.414063-18.4375 9.230469-20.292969 19.335937zm79.351563-261.617187-79.359375 46.289063c1.855468 10.105468 10.046875 17.921874 20.292968 19.328124zm-127.792969 113.953125h-48v80h48zm-48 144h48v-48h-48zm48-208h-48v48h48zm-175.792969 257.953125 79.359375-46.289063c-1.855468-10.105468-10.046875-17.921874-20.292968-19.328124zm79.351563-261.617187-79.359375-46.289063 59.066406 65.625c10.246094-1.414063 18.4375-9.230469 20.292969-19.335937zm-103.558594-60.335938c4.414062 0 8-3.59375 8-8s-3.585938-8-8-8-8 3.59375-8 8 3.585938 8 8 8zm56 262.710938 16-17.773438v-67.457031c-9.289062 3.3125-16 12.113281-16 22.527343zm-48 81.289062c0-4.40625-3.585938-8-8-8s-8 3.59375-8 8 3.585938 8 8 8 8-3.59375 8-8zm111.191406-72h16.808594v-208h-16.808594c-3.183594 15.648438-15.542968 28.007812-31.191406 31.191406v145.609375c15.648438 3.191407 28.007812 15.550781 31.191406 31.199219zm56.808594 64c-17.648438 0-32 14.351562-32 32s14.351562 32 32 32 32-14.351562 32-32-14.351562-32-32-32zm-56 64h20.320312c-7.632812-8.503906-12.320312-19.695312-12.320312-32s4.6875-23.496094 12.320312-32h-20.320312c-4.414062 0-8 3.59375-8 8v48c0 4.40625 3.585938 8 8 8zm112-64h-20.320312c7.632812 8.503906 12.320312 19.695312 12.320312 32s-4.6875 23.496094-12.320312 32h20.320312c4.414062 0 8-3.59375 8-8v-48c0-4.40625-3.585938-8-8-8zm-48-48h-16v32h16zm48.808594-16c3.183594-15.648438 15.542968-28.007812 31.191406-31.191406v-145.609375c-15.648438-3.183594-28.007812-15.542969-31.191406-31.191407h-16.808594v208zm119.191406 64c-4.414062 0-8 3.59375-8 8s3.585938 8 8 8 8-3.59375 8-8-3.585938-8-8-8zm-72-158.527344v67.457032l16 17.773437v-62.703125c0-10.414062-6.710938-19.214844-16-22.527344zm64-185.472656c0 4.40625 3.585938 8 8 8s8-3.59375 8-8-3.585938-8-8-8-8 3.59375-8 8zm0 0" fill="url(#a)"/></svg>