<svg height="496pt" viewBox="0 0 496 496" width="496pt" xmlns="http://www.w3.org/2000/svg" xmlns:xlink="http://www.w3.org/1999/xlink"><linearGradient id="a" gradientTransform="matrix(8 0 0 -8 -8 504)" gradientUnits="userSpaceOnUse" x1="32" x2="32" y1="1" y2="63"><stop offset="0" stop-color="#9f2fff"/><stop offset="1" stop-color="#0bb1d3"/></linearGradient><path d="m424 248c0 40.824219-14.304688 80.617188-40.273438 112.039062l-12.328124-10.191406c23.601562-28.566406 36.601562-64.734375 36.601562-101.847656 0-88.222656-71.777344-160-160-160-37.121094 0-73.28125 13-101.839844 36.601562l-10.183594-12.335937c31.40625-25.960937 71.191407-40.265625 112.023438-40.265625 97.046875 0 176 78.953125 176 176zm-176 160c-88.222656 0-160-71.777344-160-160 0-37.113281 13-73.28125 36.601562-101.839844l-12.328124-10.191406c-25.96875 31.414062-40.273438 71.207031-40.273438 112.03125 0 97.046875 78.953125 176 176 176 40.832031 0 80.617188-14.304688 112.03125-40.265625l-10.183594-12.335937c-28.566406 23.601562-64.726562 36.601562-101.847656 36.601562zm248-221.542969v123.085938l-37.105469 13.914062c-2.488281 6.957031-5.300781 13.765625-8.40625 20.335938l16.390625 36.054687-87.039062 87.03125-36.054688-16.390625c-6.570312 3.105469-13.386718 5.925781-20.335937 8.40625l-13.90625 37.105469h-123.09375l-13.90625-37.097656c-6.949219-2.488282-13.765625-5.300782-20.335938-8.40625l-36.054687 16.390625-87.039063-87.03125 16.390625-36.054688c-3.105468-6.570312-5.917968-13.375-8.40625-20.335937l-37.097656-13.921875v-123.085938l37.105469-13.914062c2.488281-6.957031 5.300781-13.765625 8.40625-20.335938l-16.390625-36.054687 87.039062-87.03125 36.054688 16.390625c6.5625-3.105469 13.378906-5.917969 20.335937-8.40625l13.90625-37.105469h123.09375l13.90625 37.097656c6.957031 2.488282 13.773438 5.300782 20.335938 8.40625l36.054687-16.390625 87.039063 87.03125-16.390625 36.054688c3.105468 6.570312 5.917968 13.375 8.40625 20.335937zm-16 11.085938-33.785156-12.664063-1.214844-3.589844c-2.96875-8.769531-6.503906-17.328124-10.511719-25.425781l-1.679687-3.398437 14.917968-32.832032-71.351562-71.351562-32.839844 14.925781-3.40625-1.6875c-8.089844-4.007812-16.632812-7.542969-25.410156-10.511719l-3.589844-1.214843-12.671875-33.792969h-100.90625l-12.671875 33.785156-3.589844 1.214844c-8.777343 2.96875-17.320312 6.503906-25.410156 10.511719l-3.40625 1.6875-32.839844-14.925781-71.351562 71.351562 14.917969 32.832031-1.679688 3.398438c-4.007812 8.097656-7.542969 16.65625-10.511719 25.425781l-1.214843 3.589844-33.792969 12.671875v100.914062l33.785156 12.664063 1.214844 3.589844c2.96875 8.769531 6.503906 17.328124 10.511719 25.425781l1.679687 3.398437-14.917968 32.832032 71.351562 71.351562 32.832031-14.925781 3.398438 1.6875c8.105469 4.007812 16.65625 7.542969 25.425781 10.511719l3.589844 1.214843 12.671875 33.792969h100.90625l12.671875-33.785156 3.589844-1.214844c8.769531-2.96875 17.320312-6.503906 25.425781-10.511719l3.398437-1.6875 32.832032 14.925781 71.351562-71.351562-14.917969-32.832031 1.679688-3.398438c4.007812-8.097656 7.542969-16.65625 10.511719-25.425781l1.214843-3.589844 33.792969-12.671875zm-360 39.210937v-4.753906c0-70.574219 57.425781-128 128-128 15.871094 0 31.367188 2.871094 46.039062 8.535156 49.023438 18.90625 81.960938 66.914063 81.960938 119.464844v4.753906c0 24.582032-7.03125 48.519532-20.320312 69.214844l-38.785157 60.3125c-10.351562 16.101562-27.957031 25.710938-47.101562 25.710938h-43.59375c-19.144531 0-36.75-9.617188-47.101563-25.710938l-38.777344-60.3125c-13.289062-20.6875-20.320312-44.632812-20.320312-69.214844zm45.585938 78.910156 13.046874 20.304688c44.359376 10.550781 94.382813 10.550781 138.734376 0l13.058593-20.304688c-25.609375 8.089844-53.65625 12.335938-82.425781 12.335938s-56.816406-4.246094-82.414062-12.335938zm137.863281 41.96875 1.734375-2.695312c-18.519532 3.351562-37.671875 5.0625-57.183594 5.0625s-38.664062-1.710938-57.175781-5.070312l1.734375 2.695312c7.402344 11.503906 19.976562 18.367188 33.648437 18.367188h43.59375c13.671875.007812 26.246094-6.855469 33.648438-18.359376zm-5.824219-226.007812 11.320312 84.894531c10.863282 2.289063 19.054688 11.945313 19.054688 23.480469 0 12.175781-9.144531 22.144531-20.902344 23.6875l-8.464844 43.535156c16.152344-3.109375 31.566407-7.742187 45.878907-13.765625 10.105469-17.199219 15.488281-36.6875 15.488281-56.703125v-4.753906c0-42.550781-24.710938-81.664062-62.375-100.375zm6.375 100.375c-4.414062 0-8 3.59375-8 8s3.585938 8 8 8 8-3.59375 8-8-3.585938-8-8-8zm-56-112c-11.425781 0-22.441406 1.734375-32.832031 4.929688l-18.902344 94.550781c7 4.199219 11.734375 11.785156 11.734375 20.519531 0 7.753906-3.753906 14.574219-9.464844 18.96875l14.808594 50.765625c11.335938 1.457031 22.914062 2.265625 34.65625 2.265625 11.457031 0 22.753906-.777344 33.832031-2.167969l9.625-49.472656c-6.847656-4.230469-11.457031-11.742187-11.457031-20.359375 0-9.289062 5.359375-17.273438 13.097656-21.257812l-12.511718-93.847657c-10.523438-3.199219-21.433594-4.894531-32.585938-4.894531zm-72 120c0 4.40625 3.585938 8 8 8s8-3.59375 8-8-3.585938-8-8-8-8 3.59375-8 8zm-40-3.246094c0 20.015625 5.382812 39.503906 15.496094 56.703125 13.863281 5.839844 28.761718 10.382813 44.367187 13.488281l-12.542969-43.015624c-12.914062-.371094-23.320312-10.929688-23.320312-23.929688 0-12.0625 8.976562-21.976562 20.574219-23.65625l16.824219-84.128906c-36.375 18.519531-61.398438 56.25-61.398438 99.785156zm120-204.753906h-16v16h16zm-143.769531 68.921875-11.308594-11.3125-11.3125 11.3125 11.3125 11.308594zm-80.230469 155.078125h16v-16h-16zm57.609375 139.078125 11.3125 11.3125 11.308594-11.3125-11.308594-11.308594zm150.390625 68.921875h16v-16h-16zm143.769531-68.921875 11.308594 11.3125 11.3125-11.3125-11.3125-11.308594zm80.230469-155.078125h-16v16h16zm-57.609375-139.078125-11.3125-11.3125-11.308594 11.3125 11.308594 11.308594zm0 0" fill="url(#a)"/></svg>