<svg height="496pt" viewBox="-80 0 496 496" width="496pt" xmlns="http://www.w3.org/2000/svg" xmlns:xlink="http://www.w3.org/1999/xlink"><linearGradient id="a" gradientUnits="userSpaceOnUse" x1="168.0776" x2="168.0776" y1="496" y2="0"><stop offset="0" stop-color="#9f2fff"/><stop offset="1" stop-color="#0bb1d3"/></linearGradient><path d="m224.15625 432h16v16h-16v16h-16v-16h-16v-16h16v-16h16zm-217.136719-251.878906c-9.359375-9.359375-9.359375-24.585938 0-33.945313 15.601563-15.601562 40.976563-15.589843 56.570313 0l39.597656 39.601563-16.96875 16.964844 23.664062 23.664062c3.121094-1.503906 6.578126-2.40625 10.273438-2.40625.152344 0 .289062.039062.441406.046875l8.167969-21.78125c-5.21875-4.410156-8.609375-10.914063-8.609375-18.265625 0-10.414062 6.710938-19.214844 16-22.527344v-17.472656h-16v-88c0-13.230469 10.769531-24 24-24s24 10.769531 24 24v88h-16v17.472656c6.777344 2.414063 12.113281 7.75 14.527344 14.527344h10.953125c2.414062-6.777344 7.75-12.113281 14.527343-14.527344v-33.472656h-16v-104c0-13.230469 10.769532-24 24-24 13.230469 0 24 10.769531 24 24v104h-16v33.472656c6.777344 2.414063 12.113282 7.75 14.527344 14.527344h10.953125c2.414063-6.777344 7.75-12.113281 14.527344-14.527344v-17.472656h-16v-88c0-13.230469 10.769531-24 24-24s24 10.769531 24 24v88h-16v17.472656c8.832031 3.152344 15.230469 11.269532 15.847656 21.015625l12.65625 3.617188c2.832031-3.960938 6.832031-6.976563 11.496094-8.632813v-17.472656h-16v-80c0-13.230469 10.769531-24 24-24s24 10.769531 24 24v80h-16v17.472656c9.289063 3.3125 16 12.113282 16 22.527344s-6.710937 19.214844-16 22.527344v68.226562c0 10.679688-4.160156 20.726563-11.710937 28.277344l-13.257813 13.257812c-4.488281 4.464844-7.046875 10.648438-7.046875 16.96875v26.742188h32v120h-208v-120h32v-26.742188c0-6.320312-2.558594-12.496093-7.023438-16.96875l-13.257812-13.257812c-7.558594-7.558594-11.71875-17.597656-11.71875-28.289062v-20.222657c-9.289062-3.3125-16-12.113281-16-22.527343 0-3.695313.902344-7.152344 2.40625-10.28125l-23.664062-23.664063-16.964844 16.96875zm297.136719-36.121094h16v-64c0-4.40625-3.59375-8-8-8-4.410156 0-8 3.59375-8 8zm-56-16h16v-72c0-4.40625-3.59375-8-8-8-4.410156 0-8 3.59375-8 8zm-56-16h16v-88c0-4.40625-3.59375-8-8-8-4.410156 0-8 3.59375-8 8zm-56 16h16v-72c0-4.40625-3.59375-8-8-8-4.410156 0-8 3.59375-8 8zm120 312c0-22.054688-17.945312-40-40-40s-40 17.945312-40 40 17.945312 40 40 40 40-17.945312 40-40zm-79.121094 40c-10.398437-10.175781-16.878906-24.335938-16.878906-40v-48h-32v88zm127.121094-88h-32v48c0 15.664062-6.480469 29.824219-16.878906 40h48.878906zm0-192c0 4.40625 3.589844 8 8 8 4.40625 0 8-3.59375 8-8s-3.59375-8-8-8c-4.410156 0-8 3.59375-8 8zm-56-16c0 4.40625 3.589844 8 8 8 4.40625 0 8-3.59375 8-8s-3.59375-8-8-8c-4.410156 0-8 3.59375-8 8zm-56 0c0 4.40625 3.589844 8 8 8 4.40625 0 8-3.59375 8-8s-3.59375-8-8-8c-4.410156 0-8 3.59375-8 8zm-56 0c0 4.40625 3.589844 8 8 8 4.40625 0 8-3.59375 8-8s-3.59375-8-8-8c-4.410156 0-8 3.59375-8 8zm-.609375 45.742188c5.21875 4.402343 8.609375 10.90625 8.609375 18.257812 0 2.488281-.488281 4.847656-1.191406 7.105469l49.191406 36.894531v36h-16v-28l-42.710938-32.039062c-1.625 1.078124-3.417968 1.894531-5.289062 2.558593v20.222657c0 6.320312 2.558594 12.496093 7.023438 16.96875l13.257812 13.257812c7.558594 7.558594 11.71875 17.597656 11.71875 28.289062v26.742188h16v24.878906c10.175781-10.398437 24.335938-16.878906 40-16.878906s29.824219 6.480469 40 16.878906v-24.878906h16v-26.742188c0-10.683593 4.160156-20.730468 11.710938-28.28125l13.257812-13.257812c4.472656-4.472656 7.03125-10.65625 7.03125-16.976562v-68.222657c-2.511719-.894531-4.800781-2.183593-6.847656-3.816406l-41.152344 25.730469v115.566406h-16v-124.433594l48.601562-30.375c-.265624-1.191406-.371093-2.429687-.449218-3.6875l-12.65625-3.617187c-4.351563 6.097656-11.449219 10.113281-19.496094 10.113281-10.417969 0-19.214844-6.710938-22.527344-16h-10.953125c-3.3125 9.289062-12.113281 16-22.527343 16-10.417969 0-19.214844-6.710938-22.527344-16h-10.160156l56.695312 44.089844v43.910156h-16v-36.089844l-51.097656-39.742187c-3.734375 2.398437-8.144532 3.832031-12.902344 3.832031-.152344 0-.289062-.039062-.441406-.046875zm-23.390625 18.257812c0 4.40625 3.589844 8 8 8 4.40625 0 8-3.59375 8-8s-3.59375-8-8-8c-4.410156 0-8 3.59375-8 8zm-93.824219-79.191406 39.601563 39.597656 22.628906-22.628906-28.285156-28.289063c-4.679688-4.679687-10.824219-7.015625-16.976563-7.015625-6.144531 0-12.289062 2.335938-16.96875 7.015625-3.121093 3.121094-3.121093 8.191407 0 11.320313zm269.824219 111.191406h-16v16h16zm-64 48h-16v32h16zm64-80h-16v16h16zm-64 48h-16v16h16zm-48 64h16v-16h-16zm0 0" fill="url(#a)"/></svg>