<svg height="496pt" viewBox="-56 0 496 496" width="496pt" xmlns="http://www.w3.org/2000/svg" xmlns:xlink="http://www.w3.org/1999/xlink"><linearGradient id="a" gradientUnits="userSpaceOnUse" x1="192" x2="192" y1="496" y2="0"><stop offset="0" stop-color="#9f2fff"/><stop offset="1" stop-color="#0bb1d3"/></linearGradient><path d="m0 312v24h16v-24c0-4.414062 3.59375-8 8-8s8 3.585938 8 8v24h16v-24c0-10.414062-6.710938-19.214844-16-22.527344v-50.953125c9.289062-3.3125 16-12.113281 16-22.527343 0-4.152344-1.152344-8.007813-3.023438-11.417969l14.65625-18.308594c7.199219 17.429687 24.367188 29.734375 44.367188 29.734375h33.96875l6.855469 24h-16.824219c-22.054688 0-40 17.945312-40 40v72h24v96h.207031c-5.078125 6.703125-8.207031 14.960938-8.207031 24v24h80v-24c0-9.039062-3.128906-17.296875-8.207031-24h.207031v-96h32v96h.207031c-5.078125 6.703125-8.207031 14.960938-8.207031 24v24h80v-24c0-9.039062-3.128906-17.296875-8.207031-24h.207031v-96h24v-72c0-22.054688-17.945312-40-40-40h-16.824219l6.855469-24h33.96875c20 0 37.167969-12.304688 44.367188-29.726562l14.65625 18.3125c-1.863282 3.40625-3.023438 7.261718-3.023438 11.414062 0 10.414062 6.710938 19.214844 16 22.527344v50.953125c-9.289062 3.3125-16 12.113281-16 22.527343v24h16v-24c0-4.414062 3.59375-8 8-8s8 3.585938 8 8v24h16v-24c0-10.414062-6.710938-19.214843-16-22.527343v-50.953125c9.289062-3.3125 16-12.113282 16-22.527344 0-13.230469-10.769531-24-24-24-3.222656 0-6.289062.65625-9.105469 1.816406l-23.046875-28.816406c-1.558594-25.0625-22.390625-45-47.847656-45-6.230469 0-12.238281 1.230469-17.808594 3.449219l6.800782-23.800781c2-6.992188 3.007812-14.214844 3.007812-21.480469 0-43.097657-35.0625-78.167969-78.167969-78.167969h-3.65625c-43.113281 0-78.175781 35.070312-78.175781 78.167969 0 7.257812 1.007812 14.488281 3.007812 21.480469l6.800782 23.800781c-5.570313-2.21875-11.578125-3.449219-17.808594-3.449219-25.457031 0-46.289062 19.9375-47.847656 45l-23.046875 28.816406c-2.816407-1.160156-5.882813-1.816406-9.105469-1.816406-13.230469 0-24 10.769531-24 24 0 10.414062 6.710938 19.214844 16 22.527344v50.953125c-9.289062 3.304687-16 12.105469-16 22.519531zm128 104h32v19.390625c-4.910156-2.160156-10.304688-3.390625-16-3.390625s-11.089844 1.230469-16 3.390625zm32-16h-32v-16h32zm8 80h-48v-8c0-13.230469 10.769531-24 24-24s24 10.769531 24 24zm-8-112h-32v-16h32zm64 48h32v19.390625c-4.910156-2.160156-10.304688-3.390625-16-3.390625s-11.089844 1.230469-16 3.390625zm32-16h-32v-16h32zm8 80h-48v-8c0-13.230469 10.769531-24 24-24s24 10.769531 24 24zm-8-112h-32v-16h32zm0-112c13.230469 0 24 10.769531 24 24v56h-176v-56c0-13.230469 10.769531-24 24-24h21.390625l14.519531 50.816406c3.570313 12.472656 15.113282 21.183594 28.089844 21.183594s24.519531-8.710938 28.089844-21.183594l14.519531-50.816406zm-51.296875 46.425781c-1.613281 5.636719-6.839844 9.574219-12.703125 9.574219s-11.089844-3.9375-12.703125-9.574219l-24.6875-86.425781h74.789063zm163.296875-86.425781c0 4.414062-3.59375 8-8 8s-8-3.585938-8-8 3.59375-8 8-8 8 3.585938 8 8zm-225.96875-80-9.277344-32.480469c13.542969 4.777344 33.285156 8.480469 59.246094 8.480469 26.28125 0 45.832031-3.601562 59.191406-8.289062l-9.222656 32.289062zm113.96875-57.832031c0 2.070312-.222656 4.136719-.433594 6.199219-7.335937 4.472656-26.804687 11.632812-63.566406 11.632812-32.777344 0-54.464844-6.425781-63.574219-11.792969-.203125-2.007812-.425781-4.015625-.425781-6.039062 0-7.175781 1.28125-14.039063 3.527344-20.457031 9.089844 2.640624 27.585937 6.289062 60.472656 6.289062s51.382812-3.648438 60.472656-6.28125c2.246094 6.417969 3.527344 13.28125 3.527344 20.449219zm-65.832031-62.167969h3.65625c21.273437 0 40.070312 10.753906 51.289062 27.097656-8.554687 2.101563-25.167969 4.902344-53.113281 4.902344s-44.550781-2.800781-53.113281-4.902344c11.21875-16.34375 30.007812-27.097656 51.28125-27.097656zm-86.167969 120c2.976562 0 5.839844.511719 8.609375 1.289062-9.601563 3.136719-16.609375 12.070313-16.609375 22.710938v24h16v-24c0-4.414062 3.59375-8 8-8h144c4.40625 0 8 3.585938 8 8v24h16v-24c0-10.640625-7.007812-19.574219-16.609375-22.710938 2.769531-.777343 5.632813-1.289062 8.609375-1.289062 17.648438 0 32 14.351562 32 32s-14.351562 32-32 32h-176c-17.648438 0-32-14.351562-32-32s14.351562-32 32-32zm-80 72c4.40625 0 8 3.585938 8 8s-3.59375 8-8 8-8-3.585938-8-8 3.59375-8 8-8zm232-24h-16v-16h16zm-32 0h-16v-16h16zm0 0" fill="url(#a)"/></svg>