<svg height="496pt" viewBox="-46 0 496 496" width="496pt" xmlns="http://www.w3.org/2000/svg" xmlns:xlink="http://www.w3.org/1999/xlink"><linearGradient id="a" gradientUnits="userSpaceOnUse" x1="202.248" x2="202.248" y1="496" y2="0"><stop offset="0" stop-color="#9f2fff"/><stop offset="1" stop-color="#0bb1d3"/></linearGradient><path d="m331.382812 272.574219-81.136718-15.214844v-7.230469c1.058594-.914062 2.105468-1.832031 3-2.9375l41.875-51.183594c17.496094-21.382812 27.125-48.367187 27.125-76.007812 0-66.167969-53.832032-120-120-120-66.167969 0-120 53.832031-120 120.023438 0 27.617187 9.632812 54.601562 27.128906 75.984374l41.882812 51.191407c.894532 1.097656 1.933594 2.023437 2.988282 2.929687v7.230469l-81.132813 15.214844c-27.570312 5.167969-49.785156 26.097656-56.578125 53.304687l-16.535156 66.121094h82.246094v104h240v-104h82.25l-16.535156-66.121094c-6.800782-27.207031-29.007813-48.136718-56.578126-53.304687zm41.058594 57.1875 1.117188 4.484375c-3.65625 1.089844-7.4375 1.753906-11.3125 1.753906-22.054688 0-40-17.945312-40-40 0-2.953125.433594-5.832031 1.058594-8.664062l5.121093.960937c21.453125 4.023437 38.726563 20.296875 44.015625 41.464844zm-274.195312-209.761719c0-7.671875.898437-15.128906 2.472656-22.328125 12.5625 4.703125 45.089844 14.328125 101.527344 14.328125 56.433594 0 88.96875-9.617188 101.523437-14.320312 1.582031 7.199218 2.476563 14.664062 2.476563 22.34375 0 11.535156-1.980469 22.929687-5.6875 33.71875-8.007813 3.257812-39.421875 14.257812-98.3125 14.257812-58.886719 0-90.292969-11-98.308594-14.257812-3.707031-10.796876-5.691406-22.199219-5.691406-33.742188zm104 64c20.457031 0 37.675781-1.289062 52.050781-3.128906-1.191406 6.871094-2.578125 13.3125-4.050781 19.289062v-.160156h-96v.191406c-1.46875-5.984375-2.855469-12.429687-4.046875-19.320312 14.375 1.839844 31.59375 3.128906 52.046875 3.128906zm-32.414063 56c-.953125 0-1.832031-.289062-2.703125-.609375-2.050781-4.773437-5.234375-12.832031-8.503906-23.390625h87.230469c-3.269531 10.550781-6.449219 18.609375-8.496094 23.390625-.863281.320313-1.75.609375-2.695313.609375zm95.046875-32.289062c2.28125-8.773438 4.402344-18.65625 6.066406-29.40625 8.046876-1.488282 14.789063-3.082032 20.269532-4.609376-2.550782 4.234376-5.328125 8.335938-8.480469 12.183594zm34.199219-125.375c-4.832031 1.847656-14.644531 5.078124-29.679687 7.945312-5.191407-25.585938-13.445313-48.007812-19.6875-62.707031 22.441406 11.570312 40.105468 31.050781 49.367187 54.761719zm-70.652344-62.871094c4.140625 8.398437 17.863281 37.910156 25.148438 73.34375-13.964844 1.863281-30.972657 3.191406-51.328125 3.191406-20.351563 0-37.359375-1.328125-51.324219-3.191406 7.277344-35.351563 21.007813-64.929688 25.148437-73.34375 8.386719-2.183594 17.121094-3.464844 26.175782-3.464844 9.058594 0 17.792968 1.28125 26.179687 3.464844zm-73.632812 8.101562c-6.242188 14.707032-14.496094 37.121094-19.6875 62.707032-15.042969-2.867188-24.859375-6.097657-29.691407-7.945313 9.257813-23.703125 26.929688-43.183594 49.378907-54.761719zm-41.511719 146.128906c5.480469 1.527344 12.222656 3.121094 20.269531 4.609376 1.65625 10.75 3.785157 20.625 6.066407 29.40625l-17.855469-21.824219c-3.144531-3.855469-5.929688-7.957031-8.480469-12.191407zm-37.210938 114.601563 5.121094-.960937c.625 2.832031 1.054688 5.710937 1.054688 8.664062 0 22.054688-17.941406 40-40 40-3.878906 0-7.652344-.664062-11.316406-1.753906l1.117187-4.484375c5.296875-21.167969 22.570313-37.441407 44.023437-41.464844zm230.175782 191.703125h-24v-32h-16v32h-120v-32h-16v32h-32v-104h32v32h16v-32h18.664062l-6.664062 16h27.066406l-8 72h22.207031l37.710938-88h29.015625v32h16v-32h24zm-76.132813-128-32.761719 76.433594 5.832032-52.433594h-20.9375l28-67.199219v43.199219zm92.132813 24v-16h-78.148438l10.285156-24h-28.136718v-56h-21.335938l-33.324218 80h-89.339844v16h-61.75l6.566406-26.289062c4.929688 1.394531 9.992188 2.289062 15.183594 2.289062 30.875 0 56-25.128906 56-56 0-3.945312-.542969-7.808594-1.351563-11.609375l73.351563-13.75v-14.640625h64v14.640625l73.355468 13.75c-.808593 3.800781-1.355468 7.664063-1.355468 11.609375 0 30.871094 25.128906 56 56 56 5.1875 0 10.25-.894531 15.1875-2.289062l6.566406 26.289062zm0 0" fill="url(#a)"/></svg>