<svg height="493pt" viewBox="-134 0 493 493.656" width="493pt" xmlns="http://www.w3.org/2000/svg" xmlns:xlink="http://www.w3.org/1999/xlink"><linearGradient id="a" gradientUnits="userSpaceOnUse" x1="112.3264" x2="112.3264" y1="493.656" y2="0"><stop offset="0" stop-color="#9f2fff"/><stop offset="1" stop-color="#0bb1d3"/></linearGradient><path d="m99.640625 118.359375c-51.074219 5.625-92.496094 46.746094-98.511719 97.777344-2.847656 24.191406 1.949219 48.015625 13.878906 68.886719 11.328126 19.808593 17.320313 44.214843 17.320313 70.59375v58.039062c0 44.113281 35.886719 80 80 80s80-35.886719 80-80v-58.28125c0-24.382812 6.558594-49.414062 19.511719-74.390625 8.167968-15.746094 12.488281-33.496094 12.488281-51.328125 0-31.800781-13.59375-62.207031-37.289063-83.449219-18.839843-16.878906-42-26.480469-66.710937-28.175781v-33.855469c9.289063-3.3125 16-12.113281 16-22.527343 0-13.234376-10.769531-24-24-24s-24 10.765624-24 24c0 10.414062 6.710937 19.214843 16 22.527343v33.902344c-1.566406.113281-3.113281.105469-4.6875.28125zm4.6875 270.914063v32c-20.839844-1.722657-40.351563-10.160157-56-24.203126v-27.628906c16.511719 11.550782 35.742187 18.398438 56 19.832032zm72 7.796874c-15.648437 14.042969-35.160156 22.480469-56 24.203126v-32c20.257813-1.433594 39.488281-8.28125 56-19.832032zm-64 80.585938c-33.960937 0-61.753906-26.617188-63.800781-60.070312 18.632812 12.972656 40.710937 20.070312 63.800781 20.070312 23.085937 0 45.167969-7.097656 63.800781-20.070312-2.050781 33.453124-29.839844 60.070312-63.800781 60.070312zm96-248c0 15.503906-3.59375 30.289062-10.6875 43.96875-13.007813 25.09375-20.039063 50.367188-21.097656 75.261719-17.671875 15.945312-40.320313 24.769531-64.214844 24.769531-23.886719 0-46.527344-8.816406-64.191406-24.753906-.960938-26.597656-7.511719-51.316406-19.234375-71.824219-10.214844-17.878906-14.328125-38.308594-11.878906-59.078125 5.152343-43.710938 40.632812-78.929688 84.375-83.742188 3.714843-.410156 7.402343-.601562 11.066406-.601562 23.695312 0 46.0625 8.496094 63.894531 24.480469 20.320313 18.191406 31.96875 44.261719 31.96875 71.519531zm-96-176c4.414063 0 8 3.582031 8 8 0 4.414062-3.585937 8-8 8-4.417969 0-8-3.585938-8-8 0-4.417969 3.582031-8 8-8zm36.910156 264.617188 6.167969 14.765624c-13.695312 5.722657-28.191406 8.617188-43.078125 8.617188s-29.382813-2.894531-43.089844-8.617188l6.167969-14.765624c23.457031 9.796874 50.386719 9.796874 73.832031 0zm-148.910156-256.050782c0-23.503906 9.160156-45.605468 25.777344-62.222656l11.308593 11.3125c-13.589843 13.597656-21.085937 31.679688-21.085937 50.910156 0 19.226563 7.496094 37.3125 21.085937 50.914063l-11.308593 11.3125c-16.617188-16.625-25.777344-38.722657-25.777344-62.226563zm164.28125 28.28125c7.550781-7.550781 11.71875-17.601562 11.71875-28.28125 0-10.6875-4.167969-20.734375-11.71875-28.285156l11.3125-11.3125c10.574219 10.574219 16.40625 24.640625 16.40625 39.597656 0 14.953125-5.832031 29.015625-16.40625 39.59375zm33.941406-90.503906c16.617188 16.617188 25.777344 38.71875 25.777344 62.222656s-9.160156 45.601563-25.777344 62.226563l-11.3125-11.3125c13.59375-13.601563 21.089844-31.679688 21.089844-50.914063 0-19.230468-7.496094-37.3125-21.089844-50.910156zm-138.503906 33.9375c-7.550781 7.550781-11.71875 17.597656-11.71875 28.285156 0 10.679688 4.167969 20.730469 11.71875 28.28125l-11.3125 11.3125c-10.574219-10.578125-16.40625-24.640625-16.40625-39.59375 0-14.957031 5.832031-29.023437 16.40625-39.597656zm9.746094 128.039062 8.511719 13.542969c7.960937-5.007812 16.839843-8.128906 26.023437-9.296875v32.570313c-11.191406 2.910156-19.960937 11.671875-22.863281 22.863281h-32.570313c1.167969-9.183594 4.289063-18.0625 9.296875-26.023438l-13.542968-8.511718c-8.0625 12.808594-12.320313 27.519531-12.320313 42.535156 0 44.113281 35.886719 80 80 80 15.015625 0 29.726563-4.257812 42.535156-12.320312l-8.511719-13.542969c-7.960937 5.007812-16.839843 8.128906-26.023437 9.296875v-32.570313c11.191406-2.910156 19.960937-11.671875 22.863281-22.863281h32.570313c-1.167969 9.183594-4.289063 18.0625-9.296875 26.023438l13.542968 8.511718c8.0625-12.808594 12.320313-27.519531 12.320313-42.535156 0-44.113281-35.886719-80-80-80-15.015625 0-29.726563 4.253906-42.535156 12.320312zm-20.914063 75.679688h32.585938c2.910156 11.191406 11.671875 19.960938 22.863281 22.863281v32.585938c-28.894531-3.632813-51.816406-26.554688-55.449219-55.449219zm63.449219 8c-8.824219 0-16-7.175781-16-16s7.175781-16 16-16 16 7.175781 16 16-7.175781 16-16 16zm63.449219-24h-32.585938c-2.910156-11.191406-11.671875-19.960938-22.863281-22.863281v-32.585938c28.894531 3.632813 51.816406 26.554688 55.449219 55.449219zm0 0" fill="url(#a)"/></svg>