<svg height="496pt" viewBox="0 0 496 496" width="496pt" xmlns="http://www.w3.org/2000/svg" xmlns:xlink="http://www.w3.org/1999/xlink"><linearGradient id="a" gradientUnits="userSpaceOnUse" x1="248" x2="248" y1="496" y2="0"><stop offset="0" stop-color="#9f2fff"/><stop offset="1" stop-color="#0bb1d3"/></linearGradient><path d="m368 312.472656v-.472656h-64v-16h38.558594l19.203125-96h-17.761719v-56c0-30.871094-25.121094-56-56-56h-80c-30.878906 0-56 25.128906-56 56v56h-17.761719l19.203125 96h38.558594v16h-64v.472656c-35.945312 3.992188-64 34.527344-64 71.527344v24h24v88h16v-88h24v88h240v-88h24v88h16v-88h24v-24c0-37-28.054688-67.535156-64-71.527344zm-143.167969 79.136719-76.335937-63.609375h199l-76.328125 63.609375c-12.992188 10.832031-33.34375 10.832031-46.335938 0zm88.664063-191.609375-10 48h-15.496094v-22.113281l20.945312-41.886719h19.054688v16zm14.503906-48v16h-160v-16zm-36.945312 32-16 32h-54.109376l-16-32zm-67.054688 48h48v16h-48zm103.191406-96h-33.671875c8.90625-7.910156 14.25-17.367188 16.855469-25.136719 8.511719 5.769531 14.695312 14.722657 16.816406 25.136719zm-39.191406-32c2.574219 0 5.089844.296875 7.527344.761719-2.328125 7.613281-12.390625 31.238281-47.527344 31.238281-34.726562 0-45.054688-23.574219-47.496094-31.238281 2.433594-.464844 4.929688-.761719 7.496094-.761719zm-102.375 6.863281c2.605469 7.769531 7.960938 17.226563 16.855469 25.136719h-33.671875c2.121094-10.414062 8.304687-19.367188 16.816406-25.136719zm-17.625 73.136719h19.054688l20.945312 41.886719v22.113281h-15.496094l-10-48h-14.503906zm-14.238281 32h15.734375l10 48h137.007812l10-48h15.734375l-12.796875 64h-162.882812zm54.238281 80h80v16h-80zm-128 96v-8c0-28.152344 20.902344-51.457031 48-55.359375v63.359375zm230.808594 88 25.191406-20.160156v-35.839844h-16v28.160156l-34.808594 27.839844h-29.191406v-16h-16v16h-96v-95.351562l24 19.199218v28.152344h16v-35.839844l-40-32v-19.070312l70.585938 58.820312c7.292968 6.074219 16.117187 9.945313 25.414062 11.394532v16.695312h16v-16.703125c9.296875-1.449219 18.121094-5.320313 25.414062-11.394531l70.585938-58.824219v134.921875zm105.191406-88h-48v-63.359375c27.097656 3.902344 48 27.207031 48 55.359375zm-3.3125-392h83.3125v16h-76.6875l-77.65625 77.65625-11.3125-11.3125zm51.3125 32v16h-48v-16zm16 0h16v16h-16zm-67.3125 208h83.3125v16h-76.6875l-45.65625 45.65625-11.3125-11.3125zm3.3125 32h48v16h-48zm64 0h16v16h-16zm-403.3125-176h-76.6875v-16h83.3125l58.34375 58.34375-11.3125 11.3125zm-12.6875 16h16v16h-16zm-64 0h48v16h-48zm248 224c-13.230469 0-24 10.769531-24 24s10.769531 24 24 24 24-10.769531 24-24-10.769531-24-24-24zm0 32c-4.40625 0-8-3.585938-8-8s3.59375-8 8-8 8 3.585938 8 8-3.59375 8-8 8zm-80 80h16v16h-16zm152-56h16v16h-16zm0 0" fill="url(#a)"/></svg>