<svg height="492pt" viewBox="-78 0 492 492.752" width="492pt" xmlns="http://www.w3.org/2000/svg" xmlns:xlink="http://www.w3.org/1999/xlink"><linearGradient id="a" gradientUnits="userSpaceOnUse" x1="168.376" x2="168.376" y1="492.752" y2="-.0016"><stop offset="0" stop-color="#9f2fff"/><stop offset="1" stop-color="#0bb1d3"/></linearGradient><path d="m200.375 140.753906h-64c-22.054688 0-40 17.941406-40 40v24h144v-24c0-22.058594-17.941406-40-40-40zm24 48h-112v-8c0-13.234375 10.769531-24 24-24h64c13.234375 0 24 10.765625 24 24zm-224 104c0 17.644532 14.351562 32 32 32 5.914062 0 11.386719-1.722656 16.144531-4.53125 1.457031 49.226563 33.578125 93.121094 79.855469 109.53125v23c0 22.054688 17.945312 40 40 40 22.058594 0 40-17.945312 40-40v-23c46.28125-16.410156 78.402344-60.296875 79.855469-109.53125 4.761719 2.808594 10.234375 4.53125 16.144531 4.53125 17.648438 0 32-14.355468 32-32 0-14.875-10.238281-27.289062-24-30.867187v-90.269531c13.761719-3.578126 24-16 24-30.863282v-16h-16v16c0 8.820313-7.175781 16-16 16s-16-7.179687-16-16v-16h-16v16c0 14.863282 10.242188 27.285156 24 30.863282v90.269531c-6.613281 1.722656-12.335938 5.488281-16.566406 10.609375-5.183594-13.089844-12.679688-25.152344-22.214844-35.742188h22.78125v-32c0-59.058594-45.976562-107.464844-104-111.59375v-17.878906c9.289062-3.3125 16-12.113281 16-22.527344 0-13.234375-10.765625-24-24-24-13.230469 0-24 10.765625-24 24 0 10.414063 6.714844 19.214844 16 22.527344v17.878906c-58.023438 4.128906-104 52.535156-104 111.59375v32h22.785156c-9.535156 10.597656-17.023437 22.660156-22.214844 35.742188-4.234374-5.121094-9.953124-8.886719-16.570312-10.609375v-90.269531c13.761719-3.578126 24-16 24-30.863282v-16h-16v16c0 8.820313-7.175781 16-16 16s-16-7.179687-16-16v-16h-16v16c0 14.863282 10.242188 27.285156 24 30.863282v90.269531c-13.757812 3.578125-24 15.992187-24 30.867187zm144 107.308594 24 24 24-24v17.378906l-24 24-24-24zm24 1.378906-22.078125-22.082031c3.664063-8.574219 12.175781-14.605469 22.078125-14.605469 9.90625 0 18.417969 6.03125 22.082031 14.605469zm0 75.3125c-13.230469 0-24-10.769531-24-24v-12.691406l24 24 24-24v12.691406c0 13.230469-10.765625 24-24 24zm136-200c8.824219 0 16 7.175782 16 16 0 8.820313-7.175781 16-16 16s-16-7.179687-16-16c0-8.824218 7.175781-16 16-16zm-136-232c4.410156 0 8 3.589844 8 8 0 4.40625-3.589844 8-8 8-4.40625 0-8-3.59375-8-8 0-4.410156 3.59375-8 8-8zm-96 160c0-52.9375 43.066406-96 96-96 52.9375 0 96 43.0625 96 96v16h-192zm162.28125 32c23.953125 19.855469 37.71875 48.804688 37.71875 80 0 41.949219-25.847656 79.894532-64 95.878906v-23.878906c0-22.058594-17.941406-40-40-40-22.054688 0-40 17.941406-40 40v23.878906c-38.152344-15.984374-64-53.929687-64-95.878906 0-31.195312 13.769531-60.144531 37.722656-80zm-186.28125 56c0 8.820313-7.175781 16-16 16s-16-7.179687-16-16c0-8.824218 7.175781-16 16-16s16 7.175782 16 16zm184-40h-128v80h128zm-48 16v48h-32v-48zm-64 0h16v48h-16zm96 48h-16v-48h16zm-16.03125-240.035156c5.257812-7 8.03125-15.285156 8.03125-23.964844 0-8.683594-2.773438-16.96875-8.03125-23.96875l12.792969-9.609375c7.351562 9.792969 11.238281 21.410157 11.238281 33.578125 0 12.167969-3.886719 23.78125-11.246094 33.574219zm25.566406 19.175781c9.464844-12.597656 14.464844-27.511719 14.464844-43.140625 0-15.632812-5-30.546875-14.464844-43.144531l12.792969-9.609375c11.5625 15.382812 17.671875 33.625 17.671875 52.753906 0 19.125-6.109375 37.367188-17.671875 52.75zm-89.503906-67.109375c-5.253906 7-8.03125 15.285156-8.03125 23.96875 0 8.679688 2.777344 16.964844 8.03125 23.964844l-12.789062 9.609375c-7.351563-9.792969-11.242188-21.40625-11.242188-33.574219 0-12.167968 3.890625-23.785156 11.25-33.578125zm-25.566406-19.175781c-9.464844 12.597656-14.464844 27.511719-14.464844 43.144531 0 15.621094 5 30.542969 14.464844 43.140625l-12.792969 9.609375c-11.558594-15.390625-17.671875-33.632812-17.671875-52.75 0-19.128906 6.113281-37.371094 17.671875-52.753906zm0 0" fill="url(#a)"/></svg>