<svg height="496pt" viewBox="0 0 496 496" width="496pt" xmlns="http://www.w3.org/2000/svg" xmlns:xlink="http://www.w3.org/1999/xlink"><linearGradient id="a" gradientUnits="userSpaceOnUse" x1="248" x2="248" y1="496" y2="0"><stop offset="0" stop-color="#9f2fff"/><stop offset="1" stop-color="#0bb1d3"/></linearGradient><path d="m288 384h128v-48h-128zm16-32h96v16h-96zm160-24v-104c0-61.761719-50.238281-112-112-112v-112h-288v157.574219l-24-36-40 60v274.425781c0 22.054688 17.945312 40 40 40s40-17.945312 40-40v-108.6875l52.6875 52.6875h75.3125v32h16v64h16v-64h16v64h192v-64h16v64h16v-64h16v-72c0-17.648438-14.351562-32-32-32zm-208-104c0-10.28125 1.664062-20.175781 4.671875-29.464844 13.566406 4.921875 43.902344 13.464844 91.328125 13.464844s77.761719-8.542969 91.328125-13.464844c3.007813 9.289063 4.671875 19.183594 4.671875 29.464844v18.398438c-11.953125 4.035156-45.601562 13.601562-96 13.601562s-84.046875-9.566406-96-13.601562zm0 136v56h-32v-56c0-8.824219 7.175781-16 16-16s16 7.175781 16 16zm0-40.144531v-60.625c8.609375 2.640625 22.078125 6.105469 40 8.769531v29.976562c-15.144531 3.3125-28.992188 10.902344-40 21.878907zm56-49.871094c11.910156 1.214844 25.214844 2.015625 40 2.015625s28.089844-.800781 40-2.015625v26.105469c-.449219-.019532-.886719-.089844-1.335938-.089844h-77.328124c-.449219 0-.886719.070312-1.335938.078125zm96-1.984375c17.921875-2.664062 31.390625-6.128906 40-8.769531v60.625c-11.007812-10.976563-24.855469-18.566407-40-21.871094zm29.105469-88.265625c-12.488281 4.402344-40.945313 12.265625-85.105469 12.265625s-72.617188-7.863281-85.105469-12.265625c16.042969-30.703125 48.136719-51.734375 85.105469-51.734375s69.0625 21.03125 85.105469 51.734375zm-309.105469 192.953125-36.6875-36.6875h36.6875zm-70.945312-196.6875h-34.109376l17.054688-25.574219zm6.945312 232v16h-48v-16zm-48-16v-200h16v200zm24 88c-13.230469 0-24-10.769531-24-24v-16h48v16c0 13.230469-10.769531 24-24 24zm24-88h-16v-200h16zm144-32v24h-64v-64h-64v-304h256v97.28125c-54.183594 7.796875-96 54.40625-96 110.71875v104c-17.648438 0-32 14.351562-32 32zm224 120h-160v-120c0-9.054688-3.816406-17.207031-9.886719-23.03125 12.367188-15.664062 31.132813-24.96875 51.222657-24.96875h77.328124c20.089844 0 38.855469 9.304688 51.222657 24.96875-6.070313 5.824219-9.886719 13.976562-9.886719 23.03125zm48-64h-32v-56c0-8.824219 7.175781-16 16-16s16 7.175781 16 16zm-184-200h16v16h-16zm112 16h-16v-16h16zm-96 168c-13.230469 0-24 10.769531-24 24s10.769531 24 24 24 24-10.769531 24-24-10.769531-24-24-24zm0 32c-4.414062 0-8-3.585938-8-8s3.585938-8 8-8 8 3.585938 8 8-3.585938 8-8 8zm80-32c-13.230469 0-24 10.769531-24 24s10.769531 24 24 24 24-10.769531 24-24-10.769531-24-24-24zm0 32c-4.414062 0-8-3.585938-8-8s3.585938-8 8-8 8 3.585938 8 8-3.585938 8-8 8zm-224-400c-39.703125 0-72 32.296875-72 72s32.296875 72 72 72 72-32.296875 72-72-32.296875-72-72-72zm0 128c-30.871094 0-56-25.128906-56-56s25.128906-56 56-56 56 25.128906 56 56-25.128906 56-56 56zm-40 88h64v16h-80v-80h16zm16-32h48v16h-48zm176-168h-64v-16h64zm-16 16h16v16h-16zm-16 16h-32v-16h32zm0 0" fill="url(#a)"/></svg>