<svg height="493pt" viewBox="-78 0 493 493.6" width="493pt" xmlns="http://www.w3.org/2000/svg" xmlns:xlink="http://www.w3.org/1999/xlink"><linearGradient id="a" gradientUnits="userSpaceOnUse" x1="168.3" x2="168.3" y1="493.6" y2="-.0016"><stop offset="0" stop-color="#9f2fff"/><stop offset="1" stop-color="#0bb1d3"/></linearGradient><path d="m168.300781 29.601562c-4.417969 0-8-3.585937-8-8 0-4.417968 3.582031-8 8-8 4.414063 0 8 3.582032 8 8 0 4.414063-3.585937 8-8 8zm-33.679687 6.695313c4.078125-1.6875 6.023437-6.367187 4.328125-10.457031-1.695313-4.085938-6.371094-6.023438-10.457031-4.328125-4.082032 1.6875-6.023438 6.367187-4.328126 10.457031 1.695313 4.078125 6.375 6.023438 10.457032 4.328125zm-28.546875 19.078125c3.128906-3.128906 3.128906-8.191406 0-11.3125-3.125-3.125-8.191407-3.125-11.308594 0-3.128906 3.128906-3.128906 8.195312 0 11.3125 3.125 3.121094 8.183594 3.121094 11.308594 0zm-23.40625 18.097656c-4.078125-1.6875-8.761719.246094-10.457031 4.328125-1.695313 4.078125.25 8.757813 4.328124 10.457031 4.082032 1.695313 8.761719-.25 10.457032-4.328124 1.695312-4.089844-.25-8.769532-4.328125-10.457032zm-2.367188 44.128906c0-4.417968-3.585937-8-8-8-4.417969 0-8 3.582032-8 8 0 4.414063 3.582031 8 8 8 4.414063 0 8-3.585937 8-8zm2.367188 44.125c4.078125-1.6875 6.023437-6.367187 4.328125-10.453124-1.6875-4.082032-6.367188-6.027344-10.457032-4.328126-4.078124 1.6875-6.023437 6.367188-4.328124 10.453126 1.695312 4.089843 6.378906 6.015624 10.457031 4.328124zm12.097656 29.410157c3.125 3.128906 8.191406 3.128906 11.308594 0 3.128906-3.128907 3.128906-8.191407 0-11.3125-3.125-3.128907-8.191407-3.128907-11.308594 0-3.128906 3.128906-3.128906 8.191406 0 11.3125zm135.757813-11.3125c-3.128907 3.128906-3.128907 8.191406 0 11.3125 3.128906 3.128906 8.191406 3.128906 11.3125 0 3.128906-3.128907 3.128906-8.191407 0-11.3125-3.121094-3.121094-8.183594-3.121094-11.3125 0zm23.410156-18.097657c4.078125 1.6875 8.757812-.246093 10.453125-4.328124 1.699219-4.078126-.246094-8.757813-4.328125-10.453126-4.078125-1.6875-8.757813.246094-10.453125 4.328126-1.699219 4.085937.246093 8.765624 4.328125 10.453124zm10.367187-52.125c-4.417969 0-8 3.582032-8 8 0 4.414063 3.582031 8 8 8 4.414063 0 8-3.585937 8-8 0-4.417968-3.585937-8-8-8zm-14.695312-25.679687c1.6875 4.078125 6.367187 6.023437 10.453125 4.324219 4.089844-1.695313 6.027344-6.367188 4.328125-10.453125-1.695313-4.089844-6.367188-6.023438-10.453125-4.328125-4.082032 1.695312-6.027344 6.375-4.328125 10.457031zm-7.769531-39.859375c-3.128907-3.125-8.191407-3.125-11.3125 0-3.128907 3.128906-3.128907 8.195312 0 11.3125 3.128906 3.128906 8.191406 3.128906 11.3125 0 3.121093-3.128906 3.128906-8.191406 0-11.3125zm-29.40625-12.09375c1.6875-4.082031-.25-8.761719-4.328126-10.457031-4.082031-1.6875-8.761718.25-10.457031 4.328125-1.695312 4.082031.246094 8.761718 4.328125 10.457031 4.085938 1.695313 8.765625-.25 10.457032-4.328125zm75.871093 325.632812c0 27.636719-9.632812 54.621094-27.128906 76.007813l-41.871094 51.183594c-4.585937 5.605469-11.351562 8.808593-18.578125 8.808593h-64.839844c-7.222656 0-13.992187-3.203124-18.566406-8.800781l-41.878906-51.191406c-17.503906-21.386719-27.136719-48.371094-27.136719-75.984375 0-60.128906 45.128907-110.800781 104-118.703125v-25.320313h-36.496093l15.773437-34.195312c-21.765625-12.957031-35.277344-36.382812-35.277344-61.804688 0-39.707031 32.296875-72 72-72s72 32.292969 72 72c0 22.300782-10.242187 42.644532-26.746093 56h7.6875l-32.894532 65.796876c56.914063 9.617187 99.953125 59.425781 99.953125 118.203124zm-149.960937-192.839843 45.960937-99.585938v105.960938c23.625-7.039063 40-28.6875 40-53.535157 0-30.875-25.128906-56-56-56-30.871093 0-56 25.125-56 56 0 19.207032 9.941407 36.917969 26.039063 47.160157zm29.960937 32.839843v46.109376l27.054688-54.109376h-27.054688v-51.578124l-27.503906 59.578124zm-96.832031 122.328126c10.023438 3.832031 41.183594 13.671874 96.832031 13.671874 55.648438 0 86.808594-9.839843 96.832031-13.671874-13.671874-34.824219-45.6875-60.699219-84.386718-65.34375l-28.445313 56.902343v-56.480469c-37.097656 5.769532-67.578125 31.183594-80.832031 64.921876zm198.304688 15.367187c-12.59375 4.710937-45.113282 14.304687-101.472657 14.304687s-88.878906-9.59375-101.472656-14.304687c-1.601563 7.207031-2.527344 14.65625-2.527344 22.304687 0 11.542969 1.984375 22.941407 5.6875 33.742188 8.015625 3.257812 39.421875 14.257812 98.3125 14.257812 58.886719 0 90.304688-11 98.3125-14.257812 3.703125-10.792969 5.6875-22.183594 5.6875-33.71875 0-7.664062-.929687-15.113281-2.527343-22.328125zm-149.472657 102.304687h96v.078126c1.464844-5.945313 2.816407-12.367188 4-19.207032-14.367187 1.839844-31.570312 3.128906-52 3.128906-20.433593 0-37.632812-1.289062-52-3.121093 1.183594 6.832031 2.535157 13.253906 4 19.199219zm-32.488281-14.121093 17.886719 21.871093c-2.296875-8.824218-4.421875-18.671874-6.085938-29.449218-8.058593-1.488282-14.800781-3.078125-20.28125-4.605469 2.550781 4.230469 5.335938 8.335937 8.480469 12.183594zm112.910156 54.121093c.945313 0 1.824219-.289062 2.699219-.609374 1.917969-4.464844 5.140625-12.542969 8.503906-23.390626h-87.242187c3.359375 10.855469 6.585937 18.933594 8.503906 23.398438.863281.3125 1.746094.601562 2.6875.601562zm48.066406-54.121093c3.152344-3.855469 5.933594-7.953125 8.480469-12.183594-5.488281 1.527344-12.226562 3.117187-20.28125 4.605469-1.664062 10.777344-3.800781 20.625-6.089843 29.449218zm15.679688-209.710938c25.679688-25.691406 39.832031-59.839843 39.832031-96.167969 0-36.328124-14.152343-70.480468-39.832031-96.167968l-11.3125 11.308594c22.65625 22.671874 35.144531 52.800781 35.144531 84.859374 0 32.054688-12.488281 62.183594-35.152343 84.847657zm12.296875-202.570312c28.070313 28.617187 43.535156 66.410156 43.535156 106.402343 0 39.992188-15.464843 77.78125-43.535156 106.398438l11.421875 11.199219c31.023438-31.625 48.113281-73.390625 48.113281-117.597657 0-44.210937-17.089843-85.976562-48.121093-117.601562zm-244.464844 106.402343c0 36.328126 14.152344 70.476563 39.832031 96.167969l11.3125-11.3125c-22.65625-22.671875-35.144531-52.800781-35.144531-84.855469 0-32.058593 12.488281-62.1875 35.152344-84.847656l-11.3125-11.3125c-25.6875 25.679688-39.839844 59.832032-39.839844 96.160156zm-32 0c0 44.207032 17.085938 85.972657 48.121094 117.597657l11.421875-11.199219c-28.078125-28.617188-43.542969-66.40625-43.542969-106.398438 0-39.992187 15.464844-77.785156 43.535157-106.402343l-11.425782-11.199219c-31.023437 31.625-48.109375 73.390625-48.109375 117.601562zm0 0" fill="url(#a)"/></svg>