<svg height="496pt" viewBox="0 0 496 496" width="496pt" xmlns="http://www.w3.org/2000/svg" xmlns:xlink="http://www.w3.org/1999/xlink"><linearGradient id="a" gradientUnits="userSpaceOnUse" x1="248" x2="248" y1="496" y2="0"><stop offset="0" stop-color="#9f2fff"/><stop offset="1" stop-color="#0bb1d3"/></linearGradient><path d="m240 96h-48v48h48zm-16 32h-16v-16h16zm-88 48h24v48h-16v-32h-8zm104 0h-48v48h48zm-16 32h-16v-16h16zm-112-64h48v-48h-48zm16-32h16v16h-16zm248-80c-17.070312 0-33.289062 3.640625-48 10.089844v-42.089844h-187.3125l-68.6875 68.6875v27.3125h-48c-13.230469 0-24 10.769531-24 24v248c0 13.230469 10.769531 24 24 24h88v32h-32v16h240v-16h-32v-32h48v64c0 22.054688 17.945312 40 40 40s40-17.945312 40-40v-144h-16v-42.414062c54.710938-11.152344 96-59.632813 96-117.585938 0-66.167969-53.832031-120-120-120zm-64 18.664062c-33.59375 21.296876-56 58.703126-56 101.335938s22.40625 80.039062 56 101.335938v26.664062h-224v-200h64v-64h160zm-212.6875 13.335938 36.6875-36.6875v36.6875zm172.6875 360h-144v-32h144zm-248-48c-4.414062 0-8-3.59375-8-8v-24h320v32zm312-64v16h-320v-208c0-4.40625 3.585938-8 8-8h48v184h256v-34.089844c7.632812 3.347656 15.648438 5.96875 24 7.675782v42.414062zm64 144c0 13.230469-10.769531 24-24 24s-24-10.769531-24-24v-128h48zm-16-144h-16v-40.40625c2.65625.175781 5.296875.40625 8 .40625s5.34375-.230469 8-.40625zm-8-56c-57.34375 0-104-46.65625-104-104s46.65625-104 104-104 104 46.65625 104 104-46.65625 104-104 104zm0-192c-48.519531 0-88 39.480469-88 88s39.480469 88 88 88 88-39.480469 88-88-39.480469-88-88-88zm0 160c-39.703125 0-72-32.304688-72-72s32.296875-72 72-72 72 32.304688 72 72-32.296875 72-72 72zm56-72h-16c0-22.054688-17.945312-40-40-40v-16c30.871094 0 56 25.121094 56 56zm-48 312h-16v-16h16zm0 0" fill="url(#a)"/></svg>