<svg height="496pt" viewBox="-46 0 496 496" width="496pt" xmlns="http://www.w3.org/2000/svg" xmlns:xlink="http://www.w3.org/1999/xlink"><linearGradient id="a" gradientTransform="matrix(8 0 0 -8 -53.752 504)" gradientUnits="userSpaceOnUse" x1="32" x2="32" y1="1" y2="63"><stop offset="0" stop-color="#9f2fff"/><stop offset="1" stop-color="#0bb1d3"/></linearGradient><path d="m73.113281 272.574219c-27.570312 5.167969-49.777343 26.089843-56.585937 53.304687l-16.527344 66.121094h90.246094v14.246094l20.027344 5.011718c1.902343 6.414063 4.46875 12.605469 7.671874 18.496094l-10.632812 17.710938 31.457031 31.457031 17.710938-10.632813c5.886719 3.207032 12.078125 5.773438 18.496093 7.671876l5.023438 20.039062h44.496094l5.007812-20.023438c6.417969-1.90625 12.609375-4.472656 18.496094-7.671874l17.710938 10.632812 31.457031-31.457031-10.632813-17.710938c3.207032-5.890625 5.777344-12.082031 7.671875-18.496093l20.039063-5.027344v-14.246094h90.25l-16.527344-66.128906c-6.808594-27.207032-29.007812-48.136719-56.585938-53.304688l-81.136718-15.207031v-7.230469c1.058594-.90625 2.097656-1.832031 2.992187-2.929687l41.882813-51.191407c17.496094-21.375 27.125-48.359374 27.125-76.007812 0-66.167969-53.832032-120-120-120-66.167969 0-120 53.832031-120 120.015625 0 27.625 9.632812 54.609375 27.128906 75.992187l41.882812 51.191407c.894532 1.097656 1.933594 2.023437 2.988282 2.929687v7.230469zm2.949219 15.730469 5.128906-.960938c.625 2.832031 1.054688 5.710938 1.054688 8.65625 0 22.054688-17.941406 40-40 40-3.871094 0-7.644532-.664062-11.308594-1.753906l1.117188-4.492188c5.296874-21.160156 22.570312-37.433594 44.007812-41.449218zm222.183594 105.449218-17.167969 4.292969-1.132813 4.714844c-1.945312 8.078125-5.144531 15.78125-9.496093 22.894531l-2.539063 4.136719 9.121094 15.191406-13.792969 13.792969-15.191406-9.121094-4.136719 2.535156c-7.109375 4.351563-14.8125 7.550782-22.894531 9.496094l-4.710937 1.136719-4.304688 17.175781h-19.503906l-4.296875-17.167969-4.710938-1.136719c-8.082031-1.941406-15.785156-5.144531-22.894531-9.496093l-4.136719-2.535157-15.191406 9.121094-13.792969-13.792968 9.121094-15.191407-2.539062-4.136719c-4.351563-7.113281-7.550782-14.816406-9.496094-22.894531l-1.132813-4.714843-17.179687-4.300782v-19.507812l17.167968-4.292969 1.136719-4.714844c1.945313-8.078125 5.144531-15.78125 9.496094-22.894531l2.539063-4.136719-9.121094-15.191406 13.792968-13.792969 15.191407 9.121094 4.136719-2.535156c7.109374-4.351563 14.8125-7.550782 22.894531-9.496094l4.710937-1.136719 4.304688-17.175781h19.503906l4.296875 17.167969 4.710937 1.136719c8.082032 1.941406 15.785157 5.144531 22.894532 9.496093l4.136718 2.535157 15.191407-9.121094 13.792969 13.792968-9.121094 15.191407 2.539062 4.136719c4.351563 7.113281 7.550782 14.816406 9.496094 22.894531l1.132812 4.714843 17.175782 4.300782zm74.195312-63.992187 1.117188 4.496093c-3.664063 1.078126-7.4375 1.742188-11.3125 1.742188-22.054688 0-40-17.945312-40-40 0-2.945312.433594-5.824219 1.058594-8.664062l5.128906.960937c21.4375 4.023437 38.710937 20.296875 44.007812 41.464844zm-64.839844-45.371094c-.808593 3.808594-1.355468 7.664063-1.355468 11.609375 0 30.878906 25.121094 56 56 56 5.195312 0 10.25-.886719 15.1875-2.28125l6.566406 26.28125h-69.753906v-14.246094l-20.023438-5.011718c-1.902344-6.414063-4.46875-12.605469-7.671875-18.496094l10.632813-17.710938-31.457032-31.457031-17.710937 10.632813c-5.886719-3.207032-12.078125-5.773438-18.496094-7.671876l-5.023437-20.039062h-44.496094l-5.007812 20.023438c-6.417969 1.90625-12.609376 4.472656-18.496094 7.671874l-17.710938-10.632812-31.457031 31.457031 10.632813 17.710938c-3.207032 5.890625-5.777344 12.082031-7.671876 18.496093l-20.042968 5.027344v14.246094h-69.75l6.566406-26.28125c4.9375 1.394531 9.992188 2.28125 15.183594 2.28125 30.882812 0 56-25.121094 56-56 0-3.945312-.542969-7.800781-1.351563-11.609375l73.351563-13.75v-14.640625h64v14.640625zm-209.355468-164.390625c0-7.671875.898437-15.128906 2.472656-22.328125 12.554688 4.703125 45.089844 14.328125 101.527344 14.328125 56.433594 0 88.96875-9.617188 101.523437-14.320312 1.582031 7.199218 2.476563 14.664062 2.476563 22.335937 0 11.535156-1.980469 22.929687-5.6875 33.726563-8 3.257812-39.414063 14.257812-98.3125 14.257812-58.894532 0-90.308594-11-98.308594-14.257812-3.707031-10.796876-5.691406-22.199219-5.691406-33.742188zm71.585937 120c-.953125 0-1.832031-.289062-2.695312-.609375-2.046875-4.773437-5.234375-12.832031-8.503907-23.390625h87.230469c-3.269531 10.550781-6.457031 18.609375-8.503906 23.398438-.863281.3125-1.75.601562-2.695313.601562zm32.414063-56c20.457031 0 37.683594-1.289062 52.058594-3.128906-1.175782 6.808594-2.550782 13.191406-4.015626 19.128906h-96.097656c-1.457031-5.929688-2.824218-12.3125-4.007812-19.128906 14.382812 1.839844 31.609375 3.128906 52.0625 3.128906zm62.632812 23.703125c2.28125-8.773437 4.402344-18.648437 6.066406-29.398437 8.054688-1.488282 14.789063-3.082032 20.277344-4.609376-2.542968 4.234376-5.328125 8.328126-8.480468 12.183594zm34.199219-125.367187c-4.832031 1.847656-14.644531 5.078124-29.6875 7.945312-5.175781-25.503906-13.390625-47.929688-19.621094-62.679688 22.414063 11.574219 40.0625 31.039063 49.308594 54.734376zm-70.550781-62.839844c4.273437 8.726562 17.824218 38.167968 25.058594 73.3125-13.976563 1.855468-30.976563 3.191406-51.339844 3.191406-20.359375 0-37.359375-1.335938-51.324219-3.191406 7.222656-35.074219 20.78125-64.578125 25.054687-73.320313 8.40625-2.199219 17.183594-3.488281 26.269532-3.488281 9.089844 0 17.867187 1.289062 26.28125 3.496094zm-73.800782 8.105468c-6.230468 14.75-14.445312 37.167969-19.621093 62.679688-15.042969-2.867188-24.867188-6.097656-29.691407-7.945312 9.25-23.695313 26.898438-43.160157 49.3125-54.734376zm-41.445312 146.09375c5.480469 1.527344 12.222656 3.121094 20.277344 4.609376 1.65625 10.75 3.785156 20.625 6.066406 29.398437l-17.863281-21.832031c-3.152344-3.847656-5.9375-7.941406-8.480469-12.175782zm88.964844 178.304688c-17.644532 0-32 14.351562-32 32s14.355468 32 32 32c17.648437 0 32-14.351562 32-32s-14.351563-32-32-32zm0 48c-8.820313 0-16-7.175781-16-16s7.179687-16 16-16c8.824218 0 16 7.175781 16 16s-7.175782 16-16 16zm64-16c0 10.625-2.660156 21.160156-7.695313 30.457031l-14.070312-7.625c3.765625-6.96875 5.765625-14.855469 5.765625-22.832031 0-26.472656-21.527344-48-48-48-7.972656 0-15.863282 2-22.832032 5.769531l-7.621093-14.074219c9.296875-5.03125 19.832031-7.695312 30.453125-7.695312 35.289062 0 64 28.710938 64 64zm-41.167969 42.230469 7.625 14.074219c-9.296875 5.03125-19.832031 7.695312-30.457031 7.695312-35.285156 0-64-28.710938-64-64 0-10.625 2.664062-21.160156 7.699218-30.457031l14.070313 7.625c-3.769531 6.96875-5.769531 14.855469-5.769531 22.832031 0 26.472656 21.53125 48 48 48 7.976562 0 15.867187-2 22.832031-5.769531zm-30.832031-362.230469v-16h16v16zm0 0" fill="url(#a)"/></svg>